<?xml version="1.0" encoding="UTF-8"?><svg xmlns="http://www.w3.org/2000/svg" xmlns:xlink="http://www.w3.org/1999/xlink" height="138.5" preserveAspectRatio="xMidYMid meet" version="1.0" viewBox="-2.2 -2.8 503.5 138.5" width="503.5" zoomAndPan="magnify"><g id="change1_1"><path d="M496.8,110.6c-0.6,0.6-1.3,0.9-2.1,1c-11.9,2.2-23.9,4.5-36,4.2c-12.1-0.3-23.8-3.4-36.1-2.3 c-15.9,1.4-31.8,3.8-47.8,6.4c-4.3,0.7-8.5,1.4-12.8,2c-1.2,0.2-2.5,0.4-3.7,0.6c-2.5,0.4-5,0.8-7.6,1.1l-1.5,0.2 c-0.6,0.3-1.3,0.4-2,0.3l-75.6-3.2c-40.9-1.8-82.2-5.2-123.2-3.4c-3.2,0.1-6.3,0.3-9.5,0.5c-11,0.7-21.9,1.7-32.9,2.8 c-2.7,0.3-5.5,0.6-8.2,0.9h0c-2.7,0.3-5.5,0.6-8.2,0.9c-1.4,0.2-2.8,0.3-4.1,0.5c-26,3.1-51.9,6.7-77.9,9.9 c-2.2,1.5-5.2,0.7-6.7-1.1c-0.1-0.1-0.1-0.2-0.2-0.3c-0.1-0.1-0.1-0.2-0.2-0.3c-0.7-1.2-0.8-2.7,0.3-4.2 c9.7-13.6,20.6-26.1,32.5-37.6c2.1-2,4.2-4.1,6.4-6c1.4-1.3,2.9-2.6,4.4-3.9c1.5-1.3,2.9-2.6,4.4-3.9c1.5-1.3,3-2.5,4.5-3.8 c1.5-1.3,3-2.5,4.5-3.7c1.5-1.2,3.1-2.5,4.6-3.7c1.5-1.2,3.1-2.4,4.7-3.6c1.4-1.1,2.9-2.2,4.3-3.2c15.8-11.8,32.3-22.6,49-32.9 c6.1-3.8,12.2-7.5,18.3-11.1C150.6,6.1,162-2.8,177,0.8c0.7,0.2,1.3,0.3,2,0.5c0,0,0,0,0,0c0.7,0.2,1.3,0.4,2,0.6c0,0,0,0,0.1,0 c11.8,3.3,23.4,8.4,34.6,13.2c26.2,11.5,51,25.9,73.8,43.1c0.2-0.5,0.4-1,0.7-1.3c0,0,0,0,0.1-0.1c0.3-0.3,0.6-0.6,0.9-0.9 c17.7-12.8,36.5-23.9,56.3-33.1c9.6-4.5,19.5-8.5,29.5-12.1c1.2-0.4,2.5-0.9,3.7-1.3c0.1,0,0.2,0,0.2-0.1c4-1.3,7.9-2.2,11.8-2.1 c1.9,0,3.7,0.2,5.4,0.7c1.8,0.5,3.5,1.2,5.1,2.1c18.2,10.1,33.8,26.7,48,41.6c16,16.9,31.7,34.2,47.5,51.3 C501.3,105.8,499.5,109.5,496.8,110.6z" fill="#b3d781"/></g><g id="change2_1"><path d="M177,0.8c1.3,0.3,2.7,0.7,4.1,1c-0.6,0.9-1.5,1.6-2.6,1.8c-20.1,5-34.3,20.4-45.3,36.8 c-10.2,15.3-24.7,38-9.3,54.8c7,7.7,15.4,14.1,23.1,21c0.5,0.4,0.9,0.9,1.4,1.3c-3.2,0.1-6.3,0.3-9.5,0.5 c-43.8,2.9-87.6,9.7-131.2,15.1c-3.8,2.6-9.9-1.5-6.8-5.9C19,101.5,41.8,79.9,66.8,60.8c22.7-17.4,47.1-32.6,71.6-47.3 C150.6,6.1,162-2.8,177,0.8z M381,9.3c-0.1,0-0.2,0.1-0.2,0.1c-1.3,0.4-2.5,0.8-3.8,1.3c-10,3.6-19.9,7.6-29.5,12.1 c-19.8,9.2-38.6,20.3-56.3,33.1l-0.9,0.9l0,0.1l0.4,0.6c5.3,8.7,11.3,16.9,18,24.7c12.8,15,29.1,26.6,42,41.4 c2.6-0.3,5.1-0.7,7.7-1.1c0,0,0,0,0,0c1.2-0.2,2.5-0.4,3.7-0.6c4.3-0.7,8.5-1.4,12.8-2c-2.5-9.6-9-17.7-13-26.8 c-0.2-0.5-0.5-1.1-0.7-1.6c0-0.1-0.1-0.3-0.1-0.5c-1.4-6.1-2-12.5-3-18.8c1.1-6.3,3-12.4,5-18.4c3.5-10.6,7.2-21.4,13.3-30.8 c4.4-6.7,10.1-11.6,16.5-15.8C388.9,7.2,385,8.1,381,9.3z" fill="#86a161"/></g></svg>