<?xml version="1.0" encoding="UTF-8"?><svg xmlns="http://www.w3.org/2000/svg" xmlns:xlink="http://www.w3.org/1999/xlink" height="2500.0" preserveAspectRatio="xMidYMid meet" version="1.0" viewBox="-11.0 0.0 2511.0 2500.0" width="2511.0" zoomAndPan="magnify"><g><g><path d="M 334.269531 1087.359375 L 178.300781 873.5 L 65.210938 1087.359375 L 65.210938 2044.476562 L 334.269531 2044.476562 L 334.269531 1087.359375" fill="#f2d4ac"/></g><g><path d="M 661.796875 1087.21875 L 334.269531 1087.21875 L 334.269531 2044.476562 L 661.796875 2044.476562 L 661.796875 1087.21875" fill="#e2c1a0"/></g><g><path d="M 178.300781 873.5 L 334.269531 1087.21875 L 661.796875 1087.21875 L 477.421875 876.03125 L 178.300781 873.5" fill="#869186"/></g><g><path d="M 272.464844 1193.191406 L 218.988281 1193.191406 L 218.988281 1100.269531 L 272.464844 1100.269531 L 272.464844 1193.191406" fill="#979e97"/></g><g><path d="M 272.464844 1306.589844 L 218.988281 1306.589844 L 218.988281 1213.671875 L 272.464844 1213.671875 L 272.464844 1306.589844" fill="#979e97"/></g><g><path d="M 272.464844 1420 L 218.988281 1420 L 218.988281 1327.070312 L 272.464844 1327.070312 L 272.464844 1420" fill="#979e97"/></g><g><path d="M 272.464844 1533.402344 L 218.988281 1533.402344 L 218.988281 1440.480469 L 272.464844 1440.480469 L 272.464844 1533.402344" fill="#979e97"/></g><g><path d="M 272.464844 1646.804688 L 218.988281 1646.804688 L 218.988281 1553.882812 L 272.464844 1553.882812 L 272.464844 1646.804688" fill="#979e97"/></g><g><path d="M 165.441406 1193.191406 L 111.964844 1193.191406 L 111.964844 1100.269531 L 165.441406 1100.269531 L 165.441406 1193.191406" fill="#979e97"/></g><g><path d="M 213.613281 1065.890625 L 160.140625 1065.890625 L 160.140625 972.960938 L 213.613281 972.960938 L 213.613281 1065.890625" fill="#979e97"/></g><g><path d="M 165.441406 1306.589844 L 111.964844 1306.589844 L 111.964844 1213.671875 L 165.441406 1213.671875 L 165.441406 1306.589844" fill="#979e97"/></g><g><path d="M 165.441406 1420 L 111.964844 1420 L 111.964844 1327.070312 L 165.441406 1327.070312 L 165.441406 1420" fill="#979e97"/></g><g><path d="M 165.441406 1533.402344 L 111.964844 1533.402344 L 111.964844 1440.480469 L 165.441406 1440.480469 L 165.441406 1533.402344" fill="#979e97"/></g><g><path d="M 165.441406 1646.804688 L 111.964844 1646.804688 L 111.964844 1553.882812 L 165.441406 1553.882812 L 165.441406 1646.804688" fill="#979e97"/></g><g><path d="M 165.441406 1765.625 L 111.964844 1765.625 L 111.964844 1672.699219 L 165.441406 1672.699219 L 165.441406 1765.625" fill="#979e97"/></g><g><path d="M 165.441406 1879.027344 L 111.964844 1879.027344 L 111.964844 1786.101562 L 165.441406 1786.101562 L 165.441406 1879.027344" fill="#979e97"/></g><g><path d="M 165.441406 1992.433594 L 111.964844 1992.433594 L 111.964844 1899.507812 L 165.441406 1899.507812 L 165.441406 1992.433594" fill="#979e97"/></g><g><path d="M 272.464844 1765.625 L 218.988281 1765.625 L 218.988281 1672.699219 L 272.464844 1672.699219 L 272.464844 1765.625" fill="#979e97"/></g><g><path d="M 272.464844 1879.027344 L 218.988281 1879.027344 L 218.988281 1786.101562 L 272.464844 1786.101562 L 272.464844 1879.027344" fill="#979e97"/></g><g><path d="M 272.464844 1992.433594 L 218.988281 1992.433594 L 218.988281 1899.507812 L 272.464844 1899.507812 L 272.464844 1992.433594" fill="#979e97"/></g><g><path d="M 572.574219 1193.191406 L 519.101562 1193.191406 L 519.101562 1100.269531 L 572.574219 1100.269531 L 572.574219 1193.191406" fill="#979e97"/></g><g><path d="M 572.574219 1306.589844 L 519.101562 1306.589844 L 519.101562 1213.671875 L 572.574219 1213.671875 L 572.574219 1306.589844" fill="#979e97"/></g><g><path d="M 572.574219 1420 L 519.101562 1420 L 519.101562 1327.070312 L 572.574219 1327.070312 L 572.574219 1420" fill="#979e97"/></g><g><path d="M 572.574219 1533.402344 L 519.101562 1533.402344 L 519.101562 1440.480469 L 572.574219 1440.480469 L 572.574219 1533.402344" fill="#979e97"/></g><g><path d="M 572.574219 1646.804688 L 519.101562 1646.804688 L 519.101562 1553.882812 L 572.574219 1553.882812 L 572.574219 1646.804688" fill="#979e97"/></g><g><path d="M 465.550781 1193.191406 L 412.078125 1193.191406 L 412.078125 1100.269531 L 465.550781 1100.269531 L 465.550781 1193.191406" fill="#979e97"/></g><g><path d="M 465.550781 1306.589844 L 412.078125 1306.589844 L 412.078125 1213.671875 L 465.550781 1213.671875 L 465.550781 1306.589844" fill="#979e97"/></g><g><path d="M 465.550781 1420 L 412.078125 1420 L 412.078125 1327.070312 L 465.550781 1327.070312 L 465.550781 1420" fill="#979e97"/></g><g><path d="M 465.550781 1533.402344 L 412.078125 1533.402344 L 412.078125 1440.480469 L 465.550781 1440.480469 L 465.550781 1533.402344" fill="#979e97"/></g><g><path d="M 465.550781 1646.804688 L 412.078125 1646.804688 L 412.078125 1553.882812 L 465.550781 1553.882812 L 465.550781 1646.804688" fill="#979e97"/></g><g><path d="M 465.550781 1765.625 L 412.078125 1765.625 L 412.078125 1672.699219 L 465.550781 1672.699219 L 465.550781 1765.625" fill="#979e97"/></g><g><path d="M 465.550781 1879.027344 L 412.078125 1879.027344 L 412.078125 1786.101562 L 465.550781 1786.101562 L 465.550781 1879.027344" fill="#979e97"/></g><g><path d="M 465.550781 1992.433594 L 412.078125 1992.433594 L 412.078125 1899.507812 L 465.550781 1899.507812 L 465.550781 1992.433594" fill="#979e97"/></g><g><path d="M 572.574219 1765.625 L 519.101562 1765.625 L 519.101562 1672.699219 L 572.574219 1672.699219 L 572.574219 1765.625" fill="#979e97"/></g><g><path d="M 572.574219 1879.027344 L 519.101562 1879.027344 L 519.101562 1786.101562 L 572.574219 1786.101562 L 572.574219 1879.027344" fill="#979e97"/></g><g><path d="M 572.574219 1992.433594 L 519.101562 1992.433594 L 519.101562 1899.507812 L 572.574219 1899.507812 L 572.574219 1992.433594" fill="#979e97"/></g><g><path d="M 87.5 1937.210938 C 70.027344 1928.625 54.921875 1912.675781 52.738281 1893.328125 C 51.964844 1886.46875 52.8125 1879.453125 51.453125 1872.691406 C 48.4375 1857.675781 35.535156 1847.097656 25.324219 1835.6875 C -2.175781 1804.976562 -11.035156 1753.144531 17.8125 1723.691406 C 25.730469 1715.609375 35.832031 1709.777344 43.039062 1701.054688 C 51.816406 1690.441406 55.460938 1676.644531 59.636719 1663.519531 C 71.53125 1626.144531 96.136719 1585.949219 135.207031 1582.453125 C 142.382812 1581.8125 149.734375 1582.488281 156.703125 1580.65625 C 175.035156 1575.839844 185.597656 1555.351562 203.601562 1549.429688 C 220.761719 1543.785156 240.574219 1554.160156 248.816406 1570.230469 C 257.0625 1586.300781 255.097656 1606.234375 247.132812 1622.445312 C 243.96875 1628.878906 239.953125 1636.75 244.089844 1642.605469 C 246.804688 1646.449219 251.9375 1647.507812 256.558594 1648.40625 C 275.867188 1652.160156 295.226562 1658.605469 310.242188 1671.316406 C 325.257812 1684.023438 335.234375 1703.960938 331.992188 1723.363281 C 330 1735.269531 323.308594 1746.3125 323.296875 1758.382812 C 323.285156 1771.761719 331.445312 1783.714844 334.253906 1796.796875 C 339.621094 1821.789062 321.765625 1849.410156 296.773438 1854.78125 C 316.355469 1882.9375 304.308594 1926.964844 273.902344 1942.828125 C 250.578125 1955 219.707031 1950.597656 200.714844 1932.390625 C 198.917969 1946.851562 189.257812 1960.902344 175.210938 1964.789062 C 158.871094 1969.308594 151 1956.222656 137.75 1950.910156 C 121.519531 1944.40625 103.6875 1945.160156 87.5 1937.210938" fill="#424942"/></g><g><path d="M 176.023438 1819.121094 C 176.855469 1817.09375 177.726562 1815.246094 178.621094 1813.632812 C 187.734375 1797.21875 202.394531 1784.660156 217.378906 1773.347656 C 237.804688 1757.925781 259.4375 1744.101562 282.011719 1732.046875 C 287.773438 1728.972656 294.363281 1724.902344 294.796875 1718.386719 C 269.257812 1722.96875 245.023438 1734.617188 225.492188 1751.703125 C 222.222656 1754.5625 225.765625 1731.238281 226.164062 1729.59375 C 229.683594 1715.117188 235.128906 1700.808594 240.570312 1686.964844 C 225.226562 1705.039062 217.140625 1727.96875 206.558594 1749.1875 C 196.820312 1768.703125 181.625 1792.992188 159.273438 1799.078125 C 150.691406 1761.914062 146.5 1723.757812 141.734375 1685.519531 C 123.871094 1732.644531 145.710938 1786.589844 133.410156 1835.460938 C 114.09375 1827.050781 100.554688 1815.371094 90.148438 1796.65625 C 88.988281 1794.578125 87.816406 1792.359375 85.800781 1791.09375 C 83.785156 1789.824219 80.644531 1790 79.515625 1792.097656 C 78.898438 1793.242188 79.027344 1794.636719 79.21875 1795.925781 C 81.472656 1811.117188 90.394531 1824.730469 101.710938 1835.121094 C 112.609375 1845.132812 128.933594 1848.085938 139.296875 1858.523438 C 150.816406 1870.121094 151.097656 1886.226562 154.367188 1901.828125 C 158.035156 1919.339844 144.027344 2111.808594 146.554688 2111.816406 C 146.582031 2111.816406 186.570312 2111.816406 186.570312 2111.816406 C 188.804688 2061.78125 187.609375 2009.386719 185.0625 1959.371094 C 184.226562 1942.953125 178.640625 1928.914062 184.335938 1912.769531 C 190.75 1894.578125 208.933594 1885.355469 223.96875 1875.320312 C 231.964844 1869.988281 240.347656 1864.808594 246.898438 1857.65625 C 251.921875 1852.179688 255.0625 1840.316406 259.386719 1836.449219 C 241.578125 1852.382812 218.921875 1871.089844 196.171875 1879.027344 C 162.382812 1890.820312 166.347656 1842.722656 176.023438 1819.121094" fill="#a1b09e"/></g><g><path d="M 1909.277344 2195.785156 L 1251.070312 2195.785156 L 1251.070312 572.65625 L 1909.277344 572.65625 L 1909.277344 2195.785156" fill="#e5bc6a"/></g><g><path d="M 1909.285156 2195.78125 L 1251.074219 2195.78125 L 1251.074219 1689.726562 L 1909.285156 1689.726562 L 1909.285156 2195.78125" fill="#edd08e"/></g><g><path d="M 1487.949219 1152.820312 L 1357.378906 1152.820312 L 1357.378906 1001.070312 L 1487.949219 1001.070312 L 1487.949219 1152.820312" fill="#ad8366"/></g><g><path d="M 1419.878906 1147.289062 L 1365.308594 1147.289062 L 1365.308594 1010.558594 L 1419.878906 1010.558594 L 1419.878906 1147.289062" fill="#f6e9d5"/></g><g><path d="M 1414.410156 1140.96875 L 1371.878906 1140.96875 L 1371.878906 1016.089844 L 1414.410156 1016.089844 L 1414.410156 1140.96875" fill="#898784"/></g><g><path d="M 1481.101562 1147.289062 L 1426.539062 1147.289062 L 1426.539062 1010.558594 L 1481.101562 1010.558594 L 1481.101562 1147.289062" fill="#f6e9d5"/></g><g><path d="M 1475.640625 1140.96875 L 1433.109375 1140.96875 L 1433.109375 1016.089844 L 1475.640625 1016.089844 L 1475.640625 1140.96875" fill="#898784"/></g><g><path d="M 1541.050781 1152.820312 L 1487.949219 1152.820312 L 1487.949219 1001.070312 L 1541.050781 1001.070312 L 1541.050781 1152.820312" fill="#d4876b"/></g><g><path d="M 1357.378906 1152.820312 L 1304.28125 1152.820312 L 1304.28125 1001.070312 L 1357.378906 1001.070312 L 1357.378906 1152.820312" fill="#d4876b"/></g><g><path d="M 1487.949219 974.25 L 1354.601562 974.25 L 1354.601562 1001.070312 L 1487.949219 1001.070312 L 1487.949219 974.25" fill="#f6e9d5"/></g><g><path d="M 1489.339844 1152.820312 L 1355.988281 1152.820312 L 1355.988281 1179.640625 L 1489.339844 1179.640625 L 1489.339844 1152.820312" fill="#f6e9d5"/></g><g><path d="M 1430.589844 2021.628906 L 1300.03125 2021.628906 L 1300.03125 1901.867188 L 1430.589844 1901.867188 L 1430.589844 2021.628906" fill="#ad8366"/></g><g><path d="M 1362.679688 2012.269531 L 1309.910156 2012.269531 L 1309.910156 1913.515625 L 1362.679688 1913.515625 L 1362.679688 2012.269531" fill="#f6e9d5"/></g><g><path d="M 1357.398438 2007.703125 L 1316.261719 2007.703125 L 1316.261719 1917.511719 L 1357.398438 1917.511719 L 1357.398438 2007.703125" fill="#898784"/></g><g><path d="M 1421.898438 2012.269531 L 1369.128906 2012.269531 L 1369.128906 1913.515625 L 1421.898438 1913.515625 L 1421.898438 2012.269531" fill="#f6e9d5"/></g><g><path d="M 1416.621094 2007.703125 L 1375.480469 2007.703125 L 1375.480469 1917.511719 L 1416.621094 1917.511719 L 1416.621094 2007.703125" fill="#898784"/></g><g><path d="M 1869.984375 2021.625 L 1739.417969 2021.625 L 1739.417969 1901.867188 L 1869.984375 1901.867188 L 1869.984375 2021.625" fill="#ad8366"/></g><g><path d="M 1802.078125 2012.269531 L 1749.300781 2012.269531 L 1749.300781 1913.515625 L 1802.078125 1913.515625 L 1802.078125 2012.269531" fill="#f6e9d5"/></g><g><path d="M 1796.796875 2007.703125 L 1755.660156 2007.703125 L 1755.660156 1917.511719 L 1796.796875 1917.511719 L 1796.796875 2007.703125" fill="#898784"/></g><g><path d="M 1861.296875 2012.269531 L 1808.519531 2012.269531 L 1808.519531 1913.515625 L 1861.296875 1913.515625 L 1861.296875 2012.269531" fill="#f6e9d5"/></g><g><path d="M 1856.015625 2007.703125 L 1814.875 2007.703125 L 1814.875 1917.511719 L 1856.015625 1917.511719 L 1856.015625 2007.703125" fill="#898784"/></g><g><path d="M 1791.679688 1152.820312 L 1661.117188 1152.820312 L 1661.117188 1001.078125 L 1791.679688 1001.078125 L 1791.679688 1152.820312" fill="#ad8366"/></g><g><path d="M 1723.609375 1147.28125 L 1669.046875 1147.28125 L 1669.046875 1010.558594 L 1723.609375 1010.558594 L 1723.609375 1147.28125" fill="#f6e9d5"/></g><g><path d="M 1718.152344 1140.964844 L 1675.617188 1140.964844 L 1675.617188 1016.085938 L 1718.152344 1016.085938 L 1718.152344 1140.964844" fill="#898784"/></g><g><path d="M 1784.832031 1147.292969 L 1730.269531 1147.292969 L 1730.269531 1010.5625 L 1784.832031 1010.5625 L 1784.832031 1147.292969" fill="#f6e9d5"/></g><g><path d="M 1779.375 1140.960938 L 1736.84375 1140.960938 L 1736.84375 1016.089844 L 1779.375 1016.089844 L 1779.375 1140.960938" fill="#898784"/></g><g><path d="M 1844.785156 1152.820312 L 1791.671875 1152.820312 L 1791.671875 1001.074219 L 1844.785156 1001.074219 L 1844.785156 1152.820312" fill="#d4876b"/></g><g><path d="M 1661.117188 1152.824219 L 1608.011719 1152.824219 L 1608.011719 1001.070312 L 1661.117188 1001.070312 L 1661.117188 1152.824219" fill="#d4876b"/></g><g><path d="M 1791.679688 974.257812 L 1658.324219 974.257812 L 1658.324219 1001.078125 L 1791.679688 1001.078125 L 1791.679688 974.257812" fill="#f6e9d5"/></g><g><path d="M 1793.082031 1152.8125 L 1659.734375 1152.8125 L 1659.734375 1179.632812 L 1793.082031 1179.632812 L 1793.082031 1152.8125" fill="#f6e9d5"/></g><g><path d="M 1795.542969 1563.601562 L 1664.984375 1563.601562 L 1664.984375 1362.078125 L 1795.542969 1362.078125 L 1795.542969 1563.601562" fill="#ad8366"/></g><g><path d="M 1727.472656 1556.253906 L 1672.90625 1556.253906 L 1672.90625 1374.671875 L 1727.472656 1374.671875 L 1727.472656 1556.253906" fill="#f6e9d5"/></g><g><path d="M 1722.011719 1547.855469 L 1679.492188 1547.855469 L 1679.492188 1382.023438 L 1722.011719 1382.023438 L 1722.011719 1547.855469" fill="#898784"/></g><g><path d="M 1788.714844 1556.246094 L 1734.152344 1556.246094 L 1734.152344 1374.667969 L 1788.714844 1374.667969 L 1788.714844 1556.246094" fill="#f6e9d5"/></g><g><path d="M 1783.234375 1547.855469 L 1740.710938 1547.855469 L 1740.710938 1382.019531 L 1783.234375 1382.019531 L 1783.234375 1547.855469" fill="#898784"/></g><g><path d="M 1848.664062 1563.597656 L 1795.550781 1563.597656 L 1795.550781 1362.074219 L 1848.664062 1362.074219 L 1848.664062 1563.597656" fill="#d4876b"/></g><g><path d="M 1664.996094 1563.59375 L 1611.890625 1563.59375 L 1611.890625 1362.070312 L 1664.996094 1362.070312 L 1664.996094 1563.59375" fill="#d4876b"/></g><g><path d="M 1795.542969 1335.253906 L 1664.984375 1335.253906 L 1664.984375 1362.078125 L 1795.542969 1362.078125 L 1795.542969 1335.253906" fill="#f6e9d5"/></g><g><path d="M 1861.34375 1607.089844 L 1607.089844 1607.089844 C 1605.039062 1607.089844 1603.371094 1605.425781 1603.371094 1603.375 L 1603.371094 1591.960938 C 1603.371094 1589.910156 1605.039062 1588.246094 1607.089844 1588.246094 L 1861.34375 1588.246094 C 1863.402344 1588.246094 1865.0625 1589.910156 1865.0625 1591.960938 L 1865.0625 1603.375 C 1865.0625 1605.425781 1863.402344 1607.089844 1861.34375 1607.089844" fill="#f6e9d5"/></g><g><path d="M 1867.472656 1584.046875 L 1599.496094 1584.046875 C 1597.625 1584.046875 1596.109375 1585.558594 1596.109375 1587.425781 L 1596.109375 1590.089844 C 1596.109375 1591.957031 1597.625 1593.46875 1599.496094 1593.46875 L 1867.472656 1593.46875 C 1869.332031 1593.46875 1870.847656 1591.957031 1870.847656 1590.089844 L 1870.847656 1587.425781 C 1870.847656 1585.558594 1869.332031 1584.046875 1867.472656 1584.046875" fill="#f6e9d5"/></g><g><path d="M 1878.933594 1563.597656 L 1587.324219 1563.597656 C 1585.375 1563.597656 1583.789062 1565.179688 1583.789062 1567.125 L 1583.789062 1583.996094 C 1583.789062 1585.941406 1585.375 1587.519531 1587.324219 1587.519531 L 1878.933594 1587.519531 C 1880.871094 1587.519531 1882.453125 1585.941406 1882.453125 1583.996094 L 1882.453125 1567.125 C 1882.453125 1565.179688 1880.871094 1563.597656 1878.933594 1563.597656" fill="#f6e9d5"/></g><g><path d="M 1589.453125 1509.808594 L 1589.453125 1564.464844 L 1871.730469 1564.464844 L 1871.730469 1509.808594 Z M 1611.304688 1511.546875 L 1619.527344 1511.546875 L 1619.527344 1562.726562 L 1611.304688 1562.726562 Z M 1609.5625 1562.726562 L 1601.339844 1562.726562 L 1601.339844 1511.546875 L 1609.5625 1511.546875 Z M 1621.261719 1511.546875 L 1629.484375 1511.546875 L 1629.484375 1562.726562 L 1621.261719 1562.726562 Z M 1631.230469 1511.546875 L 1639.449219 1511.546875 L 1639.449219 1562.726562 L 1631.230469 1562.726562 Z M 1641.195312 1511.546875 L 1649.417969 1511.546875 L 1649.417969 1562.726562 L 1641.195312 1562.726562 Z M 1651.152344 1511.546875 L 1659.375 1511.546875 L 1659.375 1562.726562 L 1651.152344 1562.726562 Z M 1661.121094 1511.546875 L 1669.339844 1511.546875 L 1669.339844 1562.726562 L 1661.121094 1562.726562 Z M 1671.074219 1511.546875 L 1679.308594 1511.546875 L 1679.308594 1562.726562 L 1671.074219 1562.726562 Z M 1681.042969 1511.546875 L 1689.265625 1511.546875 L 1689.265625 1562.726562 L 1681.042969 1562.726562 Z M 1691.007812 1511.546875 L 1699.230469 1511.546875 L 1699.230469 1562.726562 L 1691.007812 1562.726562 Z M 1700.964844 1511.546875 L 1709.1875 1511.546875 L 1709.1875 1562.726562 L 1700.964844 1562.726562 Z M 1710.933594 1511.546875 L 1719.15625 1511.546875 L 1719.15625 1562.726562 L 1710.933594 1562.726562 Z M 1720.886719 1511.546875 L 1729.121094 1511.546875 L 1729.121094 1562.726562 L 1720.886719 1562.726562 Z M 1730.855469 1511.546875 L 1739.078125 1511.546875 L 1739.078125 1562.726562 L 1730.855469 1562.726562 Z M 1740.824219 1511.546875 L 1749.042969 1511.546875 L 1749.042969 1562.726562 L 1740.824219 1562.726562 Z M 1750.777344 1511.546875 L 1759 1511.546875 L 1759 1562.726562 L 1750.777344 1562.726562 Z M 1760.746094 1511.546875 L 1768.96875 1511.546875 L 1768.96875 1562.726562 L 1760.746094 1562.726562 Z M 1770.714844 1511.546875 L 1778.933594 1511.546875 L 1778.933594 1562.726562 L 1770.714844 1562.726562 Z M 1780.667969 1511.546875 L 1788.890625 1511.546875 L 1788.890625 1562.726562 L 1780.667969 1562.726562 Z M 1790.636719 1511.546875 L 1798.859375 1511.546875 L 1798.859375 1562.726562 L 1790.636719 1562.726562 Z M 1800.59375 1511.546875 L 1808.8125 1511.546875 L 1808.8125 1562.726562 L 1800.59375 1562.726562 Z M 1810.558594 1511.546875 L 1818.78125 1511.546875 L 1818.78125 1562.726562 L 1810.558594 1562.726562 Z M 1820.527344 1511.546875 L 1828.75 1511.546875 L 1828.75 1562.726562 L 1820.527344 1562.726562 Z M 1830.480469 1511.546875 L 1838.703125 1511.546875 L 1838.703125 1562.726562 L 1830.480469 1562.726562 Z M 1840.449219 1511.546875 L 1848.671875 1511.546875 L 1848.671875 1562.726562 L 1840.449219 1562.726562 Z M 1850.40625 1511.546875 L 1858.636719 1511.546875 L 1858.636719 1562.726562 L 1850.40625 1562.726562 Z M 1591.1875 1511.546875 L 1599.605469 1511.546875 L 1599.605469 1562.726562 L 1591.1875 1562.726562 Z M 1869.996094 1562.726562 L 1860.371094 1562.726562 L 1860.371094 1511.546875 L 1869.996094 1511.546875 L 1869.996094 1562.726562" fill="#575552"/></g><g><path d="M 1484.328125 1563.597656 L 1353.769531 1563.597656 L 1353.769531 1362.078125 L 1484.328125 1362.078125 L 1484.328125 1563.597656" fill="#ad8366"/></g><g><path d="M 1416.261719 1556.25 L 1361.691406 1556.25 L 1361.691406 1374.671875 L 1416.261719 1374.671875 L 1416.261719 1556.25" fill="#f6e9d5"/></g><g><path d="M 1410.789062 1547.855469 L 1368.261719 1547.855469 L 1368.261719 1382.019531 L 1410.789062 1382.019531 L 1410.789062 1547.855469" fill="#898784"/></g><g><path d="M 1477.480469 1556.25 L 1422.921875 1556.25 L 1422.921875 1374.671875 L 1477.480469 1374.671875 L 1477.480469 1556.25" fill="#f6e9d5"/></g><g><path d="M 1472.019531 1547.855469 L 1429.488281 1547.855469 L 1429.488281 1382.019531 L 1472.019531 1382.019531 L 1472.019531 1547.855469" fill="#898784"/></g><g><path d="M 1537.441406 1563.597656 L 1484.328125 1563.597656 L 1484.328125 1362.078125 L 1537.441406 1362.078125 L 1537.441406 1563.597656" fill="#d4876b"/></g><g><path d="M 1353.769531 1563.597656 L 1300.660156 1563.597656 L 1300.660156 1362.078125 L 1353.769531 1362.078125 L 1353.769531 1563.597656" fill="#d4876b"/></g><g><path d="M 1484.328125 1335.25 L 1353.769531 1335.25 L 1353.769531 1362.078125 L 1484.328125 1362.078125 L 1484.328125 1335.25" fill="#f6e9d5"/></g><g><path d="M 1550.121094 1607.09375 L 1295.859375 1607.09375 C 1293.808594 1607.09375 1292.148438 1605.429688 1292.148438 1603.378906 L 1292.148438 1591.964844 C 1292.148438 1589.910156 1293.808594 1588.246094 1295.859375 1588.246094 L 1550.121094 1588.246094 C 1552.171875 1588.246094 1553.839844 1589.910156 1553.839844 1591.964844 L 1553.839844 1603.378906 C 1553.839844 1605.429688 1552.171875 1607.09375 1550.121094 1607.09375" fill="#f6e9d5"/></g><g><path d="M 1556.25 1584.039062 L 1288.28125 1584.039062 C 1286.410156 1584.039062 1284.898438 1585.554688 1284.898438 1587.421875 L 1284.898438 1590.085938 C 1284.898438 1591.953125 1286.410156 1593.464844 1288.28125 1593.464844 L 1556.25 1593.464844 C 1558.121094 1593.464844 1559.628906 1591.953125 1559.628906 1590.085938 L 1559.628906 1587.421875 C 1559.628906 1585.554688 1558.121094 1584.039062 1556.25 1584.039062" fill="#f6e9d5"/></g><g><path d="M 1567.710938 1563.597656 L 1276.101562 1563.597656 C 1274.148438 1563.597656 1272.570312 1565.175781 1272.570312 1567.125 L 1272.570312 1583.992188 C 1272.570312 1585.941406 1274.148438 1587.519531 1276.101562 1587.519531 L 1567.710938 1587.519531 C 1569.648438 1587.519531 1571.230469 1585.941406 1571.230469 1583.992188 L 1571.230469 1567.125 C 1571.230469 1565.175781 1569.648438 1563.597656 1567.710938 1563.597656" fill="#f6e9d5"/></g><g><path d="M 1278.230469 1509.8125 L 1278.230469 1564.46875 L 1560.5 1564.46875 L 1560.5 1509.8125 Z M 1300.078125 1511.550781 L 1308.300781 1511.550781 L 1308.300781 1562.726562 L 1300.078125 1562.726562 Z M 1298.339844 1562.726562 L 1290.121094 1562.726562 L 1290.121094 1511.550781 L 1298.339844 1511.550781 Z M 1310.039062 1511.550781 L 1318.261719 1511.550781 L 1318.261719 1562.726562 L 1310.039062 1562.726562 Z M 1320 1511.550781 L 1328.230469 1511.550781 L 1328.230469 1562.726562 L 1320 1562.726562 Z M 1329.96875 1511.550781 L 1338.191406 1511.550781 L 1338.191406 1562.726562 L 1329.96875 1562.726562 Z M 1339.929688 1511.550781 L 1348.148438 1511.550781 L 1348.148438 1562.726562 L 1339.929688 1562.726562 Z M 1349.890625 1511.550781 L 1358.121094 1511.550781 L 1358.121094 1562.726562 L 1349.890625 1562.726562 Z M 1359.859375 1511.550781 L 1368.078125 1511.550781 L 1368.078125 1562.726562 L 1359.859375 1562.726562 Z M 1369.820312 1511.550781 L 1378.039062 1511.550781 L 1378.039062 1562.726562 L 1369.820312 1562.726562 Z M 1379.78125 1511.550781 L 1388 1511.550781 L 1388 1562.726562 L 1379.78125 1562.726562 Z M 1389.738281 1511.550781 L 1397.96875 1511.550781 L 1397.96875 1562.726562 L 1389.738281 1562.726562 Z M 1399.710938 1511.550781 L 1407.929688 1511.550781 L 1407.929688 1562.726562 L 1399.710938 1562.726562 Z M 1409.671875 1511.550781 L 1417.890625 1511.550781 L 1417.890625 1562.726562 L 1409.671875 1562.726562 Z M 1419.628906 1511.550781 L 1427.859375 1511.550781 L 1427.859375 1562.726562 L 1419.628906 1562.726562 Z M 1429.589844 1511.550781 L 1437.820312 1511.550781 L 1437.820312 1562.726562 L 1429.589844 1562.726562 Z M 1439.558594 1511.550781 L 1447.78125 1511.550781 L 1447.78125 1562.726562 L 1439.558594 1562.726562 Z M 1449.519531 1511.550781 L 1457.738281 1511.550781 L 1457.738281 1562.726562 L 1449.519531 1562.726562 Z M 1459.480469 1511.550781 L 1467.710938 1511.550781 L 1467.710938 1562.726562 L 1459.480469 1562.726562 Z M 1469.441406 1511.550781 L 1477.671875 1511.550781 L 1477.671875 1562.726562 L 1469.441406 1562.726562 Z M 1479.410156 1511.550781 L 1487.628906 1511.550781 L 1487.628906 1562.726562 L 1479.410156 1562.726562 Z M 1489.371094 1511.550781 L 1497.589844 1511.550781 L 1497.589844 1562.726562 L 1489.371094 1562.726562 Z M 1499.328125 1511.550781 L 1507.558594 1511.550781 L 1507.558594 1562.726562 L 1499.328125 1562.726562 Z M 1509.300781 1511.550781 L 1517.519531 1511.550781 L 1517.519531 1562.726562 L 1509.300781 1562.726562 Z M 1519.261719 1511.550781 L 1527.480469 1511.550781 L 1527.480469 1562.726562 L 1519.261719 1562.726562 Z M 1529.21875 1511.550781 L 1537.449219 1511.550781 L 1537.449219 1562.726562 L 1529.21875 1562.726562 Z M 1539.191406 1511.550781 L 1547.410156 1511.550781 L 1547.410156 1562.726562 L 1539.191406 1562.726562 Z M 1279.96875 1511.550781 L 1288.378906 1511.550781 L 1288.378906 1562.726562 L 1279.96875 1562.726562 Z M 1558.761719 1562.726562 L 1549.148438 1562.726562 L 1549.148438 1511.550781 L 1558.761719 1511.550781 L 1558.761719 1562.726562" fill="#575552"/></g><g><path d="M 1909.285156 1707.125 L 1238.023438 1707.125 L 1238.023438 1672.328125 L 1909.285156 1672.328125 L 1909.285156 1707.125" fill="#f6e9d5"/></g><g><path d="M 1909.285156 891.726562 L 1235.484375 891.726562 L 1235.484375 856.9375 L 1909.285156 856.9375 L 1909.285156 891.726562" fill="#f6e9d5"/></g><g><path d="M 1361.253906 378.390625 L 1909.265625 378.390625 L 1909.265625 572.667969 L 1170.597656 572.667969 L 1361.253906 378.390625" fill="#bf5748"/></g><g><path d="M 1170.601562 572.65625 L 1251.070312 636.445312 L 1251.070312 572.65625 L 1170.601562 572.65625" fill="#963a30"/></g><g><path d="M 1487.941406 794.003906 L 1357.378906 794.003906 L 1357.378906 608.433594 L 1487.941406 608.433594 L 1487.941406 794.003906" fill="#ad8366"/></g><g><path d="M 1419.878906 787.238281 L 1365.3125 787.238281 L 1365.3125 620.023438 L 1419.878906 620.023438 L 1419.878906 787.238281" fill="#f6e9d5"/></g><g><path d="M 1414.414062 779.507812 L 1371.890625 779.507812 L 1371.890625 626.789062 L 1414.414062 626.789062 L 1414.414062 779.507812" fill="#898784"/></g><g><path d="M 1481.109375 787.238281 L 1426.535156 787.238281 L 1426.535156 620.023438 L 1481.109375 620.023438 L 1481.109375 787.238281" fill="#f6e9d5"/></g><g><path d="M 1475.644531 779.507812 L 1433.109375 779.507812 L 1433.109375 626.789062 L 1475.644531 626.789062 L 1475.644531 779.507812" fill="#898784"/></g><g><path d="M 1541.046875 794.003906 L 1487.941406 794.003906 L 1487.941406 608.433594 L 1541.046875 608.433594 L 1541.046875 794.003906" fill="#d4876b"/></g><g><path d="M 1357.378906 794.003906 L 1304.277344 794.003906 L 1304.277344 608.433594 L 1357.378906 608.433594 L 1357.378906 794.003906" fill="#d4876b"/></g><g><path d="M 1487.953125 584.261719 L 1357.390625 584.261719 L 1357.390625 608.425781 L 1487.953125 608.425781 L 1487.953125 584.261719" fill="#f6e9d5"/></g><g><path d="M 1487.9375 813.351562 L 1357.382812 813.351562 L 1357.382812 794.007812 L 1487.9375 794.007812 L 1487.9375 813.351562" fill="#f6e9d5"/></g><g><path d="M 1791.671875 794.003906 L 1661.121094 794.003906 L 1661.121094 608.433594 L 1791.671875 608.433594 L 1791.671875 794.003906" fill="#ad8366"/></g><g><path d="M 1723.617188 787.238281 L 1669.050781 787.238281 L 1669.050781 620.023438 L 1723.617188 620.023438 L 1723.617188 787.238281" fill="#f6e9d5"/></g><g><path d="M 1718.148438 779.507812 L 1675.617188 779.507812 L 1675.617188 626.789062 L 1718.148438 626.789062 L 1718.148438 779.507812" fill="#898784"/></g><g><path d="M 1784.835938 787.238281 L 1730.269531 787.238281 L 1730.269531 620.023438 L 1784.835938 620.023438 L 1784.835938 787.238281" fill="#f6e9d5"/></g><g><path d="M 1779.378906 779.507812 L 1736.847656 779.507812 L 1736.847656 626.789062 L 1779.378906 626.789062 L 1779.378906 779.507812" fill="#898784"/></g><g><path d="M 1844.789062 794.003906 L 1791.671875 794.003906 L 1791.671875 608.433594 L 1844.789062 608.433594 L 1844.789062 794.003906" fill="#d4876b"/></g><g><path d="M 1661.121094 794.003906 L 1608.003906 794.003906 L 1608.003906 608.433594 L 1661.121094 608.433594 L 1661.121094 794.003906" fill="#d4876b"/></g><g><path d="M 1791.6875 584.261719 L 1661.121094 584.261719 L 1661.121094 608.425781 L 1791.6875 608.425781 L 1791.6875 584.261719" fill="#f6e9d5"/></g><g><path d="M 1791.679688 813.347656 L 1661.117188 813.347656 L 1661.117188 794.003906 L 1791.679688 794.003906 L 1791.679688 813.347656" fill="#f6e9d5"/></g><g><path d="M 1693.539062 1905.511719 C 1693.539062 1905.511719 1693.539062 1821.011719 1589.441406 1821.027344 C 1473.980469 1821.042969 1474.0625 1905.511719 1474.0625 1905.511719 L 1474.0625 2195.785156 L 1693.539062 2195.785156 L 1693.539062 1905.511719" fill="#f6e9d5"/></g><g><path d="M 1663.171875 1904.726562 C 1663.171875 1904.726562 1663.171875 1856.285156 1589.101562 1856.421875 C 1506.945312 1856.570312 1507.027344 1904.726562 1507.027344 1904.726562 L 1507.027344 2195.785156 L 1663.171875 2195.785156 L 1663.171875 1904.726562" fill="#ad8366"/></g><g><path d="M 1651.027344 1915.289062 C 1651.027344 1915.289062 1651.027344 1868.609375 1588.074219 1868.738281 C 1518.234375 1868.882812 1518.296875 1915.289062 1518.296875 1915.289062 L 1518.296875 2195.785156 L 1651.027344 2195.785156 L 1651.027344 1915.289062" fill="#d4876b"/></g><g><path d="M 1629.480469 1977.964844 L 1541.054688 1977.964844 C 1538.648438 1977.964844 1536.703125 1976.019531 1536.703125 1973.617188 L 1536.703125 1922.222656 C 1536.703125 1921.824219 1536.761719 1912.15625 1543.238281 1902.527344 C 1549.121094 1893.765625 1561.582031 1883.320312 1587.53125 1883.292969 C 1587.5625 1883.292969 1587.59375 1883.292969 1587.632812 1883.292969 C 1602.546875 1883.292969 1614.253906 1887.429688 1622.421875 1895.589844 C 1633.699219 1906.855469 1633.832031 1921.601562 1633.832031 1922.222656 L 1633.832031 1973.617188 C 1633.832031 1976.019531 1631.886719 1977.964844 1629.480469 1977.964844 Z M 1545.402344 1969.269531 L 1625.128906 1969.269531 L 1625.128906 1922.234375 C 1625.121094 1920.925781 1624.410156 1891.988281 1587.621094 1891.988281 C 1587.59375 1891.988281 1587.570312 1891.988281 1587.542969 1891.988281 C 1546.136719 1892.035156 1545.414062 1921.003906 1545.402344 1922.238281 L 1545.402344 1969.269531" fill="#b76935"/></g><g><path d="M 1507.027344 2195.785156 L 1518.300781 2181.902344 L 1651.027344 2181.902344 L 1663.171875 2195.785156 L 1507.027344 2195.785156" fill="#f6e9d5"/></g><g><path d="M 1629.480469 2155.238281 L 1541.054688 2155.238281 C 1538.648438 2155.238281 1536.703125 2153.289062 1536.703125 2150.886719 L 1536.703125 1998.871094 C 1536.703125 1996.46875 1538.648438 1994.523438 1541.054688 1994.523438 L 1629.480469 1994.523438 C 1631.886719 1994.523438 1633.832031 1996.46875 1633.832031 1998.871094 L 1633.832031 2150.886719 C 1633.832031 2153.289062 1631.886719 2155.238281 1629.480469 2155.238281 Z M 1545.402344 2146.539062 L 1625.128906 2146.539062 L 1625.128906 2003.21875 L 1545.402344 2003.21875 L 1545.402344 2146.539062" fill="#b76935"/></g><g><path d="M 1249.953125 2195.78125 L 521.246094 2195.78125 L 521.246094 602.289062 L 1249.953125 602.289062 L 1249.953125 2195.78125" fill="#dec4ae"/></g><g><path d="M 1249.949219 2195.785156 L 521.246094 2195.785156 L 521.246094 2143.238281 L 1249.949219 2143.238281 L 1249.949219 2195.785156" fill="#ad8366"/></g><g><path d="M 1249.953125 1042.894531 L 521.246094 1042.894531 L 521.246094 602.289062 L 1249.953125 602.289062 L 1249.953125 1042.894531" fill="#979e97"/></g><g><path d="M 1249.949219 348.855469 L 521.242188 348.855469 L 410.128906 602.296875 L 1286.125 602.296875 L 1249.949219 348.855469" fill="#a1b09e"/></g><g><path d="M 1162.09375 138.183594 L 921.773438 43.933594 L 681.457031 138.183594 L 681.457031 348.621094 L 1162.09375 348.621094 L 1162.09375 138.183594" fill="#dec4ae"/></g><g><path d="M 410.132812 602.289062 L 521.246094 679.769531 L 521.246094 602.289062 L 410.132812 602.289062" fill="#424942"/></g><g><path d="M 1286.136719 602.289062 L 1249.953125 659.429688 L 1249.953125 602.289062 L 1286.136719 602.289062" fill="#424942"/></g><g><path d="M 633.773438 156.597656 L 921.773438 43.929688 L 1200.636719 156.597656 L 1216.324219 124.160156 L 921.773438 0.00390625 L 622.117188 124.160156 L 633.773438 156.597656" fill="#a1b09e"/></g><g><path d="M 633.769531 156.605469 L 681.457031 187.234375 L 681.457031 138.261719 L 633.769531 156.605469" fill="#424942"/></g><g><path d="M 1200.636719 156.601562 L 1162.089844 182.421875 L 1162.089844 141.03125 L 1200.636719 156.601562" fill="#424942"/></g><g><path d="M 837.03125 187.226562 L 736.511719 187.226562 L 736.511719 242.050781 L 837.03125 242.050781 L 837.03125 187.226562" fill="#898784"/></g><g><path d="M 1098.378906 187.226562 L 997.859375 187.226562 L 997.859375 242.050781 L 1098.378906 242.050781 L 1098.378906 187.226562" fill="#898784"/></g><g><path d="M 1108.429688 187.230469 L 988.167969 187.230469 L 988.167969 173.257812 L 1108.429688 173.257812 L 1108.429688 187.230469" fill="#f6e9d5"/></g><g><path d="M 848.125 187.230469 L 727.371094 187.230469 L 727.371094 173.257812 L 848.125 173.257812 L 848.125 187.230469" fill="#f6e9d5"/></g><g><path d="M 795.910156 602.289062 L 630.507812 602.289062 L 630.507812 675.195312 L 795.910156 675.195312 L 795.910156 602.289062" fill="#f6e9d5"/></g><g><path d="M 782.203125 602.289062 L 645.34375 602.289062 L 645.34375 659.429688 L 782.203125 659.429688 L 782.203125 602.289062" fill="#5d321f"/></g><g><path d="M 722.621094 602.289062 L 708.914062 602.289062 L 708.914062 659.429688 L 722.621094 659.429688 L 722.621094 602.289062" fill="#f6e9d5"/></g><g><path d="M 1143.890625 602.289062 L 978.488281 602.289062 L 978.488281 675.195312 L 1143.890625 675.195312 L 1143.890625 602.289062" fill="#f6e9d5"/></g><g><path d="M 1130.183594 602.289062 L 993.324219 602.289062 L 993.324219 659.429688 L 1130.183594 659.429688 L 1130.183594 602.289062" fill="#5d321f"/></g><g><path d="M 1072.597656 602.289062 L 1058.890625 602.289062 L 1058.890625 659.429688 L 1072.597656 659.429688 L 1072.597656 602.289062" fill="#f6e9d5"/></g><g><path d="M 1268.039062 1061.519531 L 506.230469 1061.519531 L 506.230469 1024.28125 L 1268.039062 1024.28125 L 1268.039062 1061.519531" fill="#f6e9d5"/></g><g><path d="M 1266.5 1470.089844 L 504.691406 1470.089844 L 504.691406 1432.851562 L 1266.5 1432.851562 L 1266.5 1470.089844" fill="#f6e9d5"/></g><g><path d="M 795.90625 1024.285156 L 630.503906 1024.285156 L 630.503906 768.875 L 795.90625 768.875 L 795.90625 1024.285156" fill="#f6e9d5"/></g><g><path d="M 782.199219 1024.277344 L 645.34375 1024.277344 L 645.34375 784.765625 L 782.199219 784.765625 L 782.199219 1024.277344" fill="#a1b09e"/></g><g><path d="M 645.34375 784.765625 L 645.34375 804.6875 L 645.339844 804.6875 L 645.339844 812.917969 L 645.34375 812.917969 L 645.34375 823.859375 L 645.339844 823.859375 L 645.339844 832.089844 L 645.34375 832.089844 L 645.34375 843.03125 L 645.339844 843.03125 L 645.339844 851.261719 L 645.34375 851.261719 L 645.34375 862.207031 L 645.339844 862.207031 L 645.339844 870.433594 L 645.34375 870.433594 L 645.34375 881.378906 L 645.339844 881.378906 L 645.339844 889.597656 L 645.34375 889.597656 L 645.34375 900.550781 L 645.339844 900.550781 L 645.339844 908.769531 L 645.34375 908.769531 L 645.34375 919.722656 L 645.339844 919.722656 L 645.339844 927.941406 L 645.34375 927.941406 L 645.34375 938.894531 L 645.339844 938.894531 L 645.339844 947.113281 L 645.34375 947.113281 L 645.34375 958.070312 L 645.339844 958.070312 L 645.339844 966.289062 L 645.34375 966.289062 L 645.34375 977.242188 L 645.339844 977.242188 L 645.339844 985.460938 L 645.34375 985.460938 L 645.34375 996.414062 L 645.339844 996.414062 L 645.339844 1004.632812 L 645.34375 1004.632812 L 645.34375 1024.277344 L 782.199219 1024.277344 L 782.199219 784.765625 Z M 773.976562 804.6875 L 719.875 804.6875 L 719.875 792.984375 L 773.976562 792.984375 Z M 719.875 977.242188 L 719.875 966.289062 L 773.976562 966.289062 L 773.976562 977.242188 Z M 773.976562 985.460938 L 773.976562 996.414062 L 719.875 996.414062 L 719.875 985.460938 Z M 719.875 958.070312 L 719.875 947.113281 L 773.976562 947.113281 L 773.976562 958.070312 Z M 719.875 938.894531 L 719.875 927.941406 L 773.976562 927.941406 L 773.976562 938.894531 Z M 719.875 919.722656 L 719.875 908.769531 L 773.976562 908.769531 L 773.976562 919.722656 Z M 719.875 900.550781 L 719.875 889.597656 L 773.976562 889.597656 L 773.976562 900.550781 Z M 719.875 881.378906 L 719.875 870.433594 L 773.976562 870.433594 L 773.976562 881.378906 Z M 719.875 862.207031 L 719.875 851.261719 L 773.976562 851.261719 L 773.976562 862.207031 Z M 719.875 843.03125 L 719.875 832.089844 L 773.976562 832.089844 L 773.976562 843.03125 Z M 719.875 823.859375 L 719.875 812.917969 L 773.976562 812.917969 L 773.976562 823.859375 Z M 653.5625 792.984375 L 711.652344 792.984375 L 711.652344 804.6875 L 653.5625 804.6875 Z M 653.5625 812.917969 L 711.652344 812.917969 L 711.652344 823.859375 L 653.5625 823.859375 Z M 653.5625 832.089844 L 711.652344 832.089844 L 711.652344 843.03125 L 653.5625 843.03125 Z M 653.5625 851.261719 L 711.652344 851.261719 L 711.652344 862.207031 L 653.5625 862.207031 Z M 653.5625 870.433594 L 711.652344 870.433594 L 711.652344 881.378906 L 653.5625 881.378906 Z M 653.5625 889.597656 L 711.652344 889.597656 L 711.652344 900.550781 L 653.5625 900.550781 Z M 653.5625 908.769531 L 711.652344 908.769531 L 711.652344 919.722656 L 653.5625 919.722656 Z M 653.5625 927.941406 L 711.652344 927.941406 L 711.652344 938.894531 L 653.5625 938.894531 Z M 653.5625 947.113281 L 711.652344 947.113281 L 711.652344 958.070312 L 653.5625 958.070312 Z M 653.5625 966.289062 L 711.652344 966.289062 L 711.652344 977.242188 L 653.5625 977.242188 Z M 653.5625 985.460938 L 711.652344 985.460938 L 711.652344 996.414062 L 653.5625 996.414062 Z M 653.5625 1004.632812 L 711.652344 1004.632812 L 711.652344 1016.0625 L 653.5625 1016.0625 Z M 719.875 1016.0625 L 719.875 1004.632812 L 773.976562 1004.632812 L 773.976562 1016.0625 L 719.875 1016.0625" fill="#5d321f"/></g><g><path d="M 1148.4375 1024.285156 L 983.035156 1024.285156 L 983.035156 768.875 L 1148.4375 768.875 L 1148.4375 1024.285156" fill="#f6e9d5"/></g><g><path d="M 1134.726562 1024.277344 L 997.875 1024.277344 L 997.875 784.765625 L 1134.726562 784.765625 L 1134.726562 1024.277344" fill="#a1b09e"/></g><g><path d="M 997.871094 784.765625 L 997.871094 1024.277344 L 1134.726562 1024.277344 L 1134.726562 784.765625 Z M 1126.507812 804.6875 L 1072.410156 804.6875 L 1072.410156 792.984375 L 1126.507812 792.984375 Z M 1072.410156 977.242188 L 1072.410156 966.289062 L 1126.507812 966.289062 L 1126.507812 977.242188 Z M 1126.507812 985.460938 L 1126.507812 996.414062 L 1072.410156 996.414062 L 1072.410156 985.460938 Z M 1072.410156 958.070312 L 1072.410156 947.113281 L 1126.507812 947.113281 L 1126.507812 958.070312 Z M 1072.410156 938.894531 L 1072.410156 927.941406 L 1126.507812 927.941406 L 1126.507812 938.894531 Z M 1072.410156 919.722656 L 1072.410156 908.769531 L 1126.507812 908.769531 L 1126.507812 919.722656 Z M 1072.410156 900.550781 L 1072.410156 889.597656 L 1126.507812 889.597656 L 1126.507812 900.550781 Z M 1072.410156 881.378906 L 1072.410156 870.433594 L 1126.507812 870.433594 L 1126.507812 881.378906 Z M 1072.410156 862.207031 L 1072.410156 851.261719 L 1126.507812 851.261719 L 1126.507812 862.207031 Z M 1072.410156 843.03125 L 1072.410156 832.089844 L 1126.507812 832.089844 L 1126.507812 843.03125 Z M 1072.410156 823.859375 L 1072.410156 812.917969 L 1126.507812 812.917969 L 1126.507812 823.859375 Z M 1006.09375 792.984375 L 1064.179688 792.984375 L 1064.179688 804.6875 L 1006.09375 804.6875 Z M 1006.09375 812.917969 L 1064.179688 812.917969 L 1064.179688 823.859375 L 1006.09375 823.859375 Z M 1006.09375 832.089844 L 1064.179688 832.089844 L 1064.179688 843.03125 L 1006.09375 843.03125 Z M 1006.09375 851.261719 L 1064.179688 851.261719 L 1064.179688 862.207031 L 1006.09375 862.207031 Z M 1006.09375 870.433594 L 1064.179688 870.433594 L 1064.179688 881.378906 L 1006.09375 881.378906 Z M 1006.09375 889.597656 L 1064.179688 889.597656 L 1064.179688 900.550781 L 1006.09375 900.550781 Z M 1006.09375 908.769531 L 1064.179688 908.769531 L 1064.179688 919.722656 L 1006.09375 919.722656 Z M 1006.09375 927.941406 L 1064.179688 927.941406 L 1064.179688 938.894531 L 1006.09375 938.894531 Z M 1006.09375 947.113281 L 1064.179688 947.113281 L 1064.179688 958.070312 L 1006.09375 958.070312 Z M 1006.09375 966.289062 L 1064.179688 966.289062 L 1064.179688 977.242188 L 1006.09375 977.242188 Z M 1006.09375 985.460938 L 1064.179688 985.460938 L 1064.179688 996.414062 L 1006.09375 996.414062 Z M 1006.09375 1004.632812 L 1064.179688 1004.632812 L 1064.179688 1016.0625 L 1006.09375 1016.0625 Z M 1072.410156 1016.0625 L 1072.410156 1004.632812 L 1126.507812 1004.632812 L 1126.507812 1016.0625 L 1072.410156 1016.0625" fill="#5d321f"/></g><g><path d="M 792.03125 1399.039062 L 626.632812 1399.039062 L 626.632812 1131.191406 L 792.03125 1131.191406 L 792.03125 1399.039062" fill="#f6e9d5"/></g><g><path d="M 778.324219 1386.609375 L 641.46875 1386.609375 L 641.46875 1147.089844 L 778.324219 1147.089844 L 778.324219 1386.609375" fill="#a1b09e"/></g><g><path d="M 641.46875 1147.089844 L 641.46875 1386.609375 L 778.324219 1386.609375 L 778.324219 1147.089844 Z M 770.101562 1167.011719 L 716.003906 1167.011719 L 716.003906 1155.308594 L 770.101562 1155.308594 Z M 716.003906 1339.558594 L 716.003906 1328.609375 L 770.101562 1328.609375 L 770.101562 1339.558594 Z M 770.101562 1347.78125 L 770.101562 1358.730469 L 716.003906 1358.730469 L 716.003906 1347.78125 Z M 716.003906 1320.390625 L 716.003906 1309.441406 L 770.101562 1309.441406 L 770.101562 1320.390625 Z M 716.003906 1301.21875 L 716.003906 1290.269531 L 770.101562 1290.269531 L 770.101562 1301.21875 Z M 716.003906 1282.050781 L 716.003906 1271.101562 L 770.101562 1271.101562 L 770.101562 1282.050781 Z M 716.003906 1262.871094 L 716.003906 1251.921875 L 770.101562 1251.921875 L 770.101562 1262.871094 Z M 716.003906 1243.699219 L 716.003906 1232.75 L 770.101562 1232.75 L 770.101562 1243.699219 Z M 716.003906 1224.53125 L 716.003906 1213.578125 L 770.101562 1213.578125 L 770.101562 1224.53125 Z M 716.003906 1205.359375 L 716.003906 1194.410156 L 770.101562 1194.410156 L 770.101562 1205.359375 Z M 716.003906 1186.191406 L 716.003906 1175.238281 L 770.101562 1175.238281 L 770.101562 1186.191406 Z M 649.691406 1155.308594 L 707.78125 1155.308594 L 707.78125 1167.011719 L 649.691406 1167.011719 Z M 649.691406 1175.238281 L 707.78125 1175.238281 L 707.78125 1186.191406 L 649.691406 1186.191406 Z M 649.691406 1194.410156 L 707.78125 1194.410156 L 707.78125 1205.359375 L 649.691406 1205.359375 Z M 649.691406 1213.578125 L 707.78125 1213.578125 L 707.78125 1224.53125 L 649.691406 1224.53125 Z M 649.691406 1232.75 L 707.78125 1232.75 L 707.78125 1243.699219 L 649.691406 1243.699219 Z M 649.691406 1251.921875 L 707.78125 1251.921875 L 707.78125 1262.871094 L 649.691406 1262.871094 Z M 649.691406 1271.101562 L 707.78125 1271.101562 L 707.78125 1282.050781 L 649.691406 1282.050781 Z M 649.691406 1290.269531 L 707.78125 1290.269531 L 707.78125 1301.21875 L 649.691406 1301.21875 Z M 649.691406 1309.441406 L 707.78125 1309.441406 L 707.78125 1320.390625 L 649.691406 1320.390625 Z M 649.691406 1328.609375 L 707.78125 1328.609375 L 707.78125 1339.558594 L 649.691406 1339.558594 Z M 649.691406 1347.78125 L 707.78125 1347.78125 L 707.78125 1358.730469 L 649.691406 1358.730469 Z M 649.691406 1366.960938 L 707.78125 1366.960938 L 707.78125 1378.378906 L 649.691406 1378.378906 Z M 716.003906 1378.378906 L 716.003906 1366.960938 L 770.101562 1366.960938 L 770.101562 1378.378906 L 716.003906 1378.378906" fill="#5d321f"/></g><g><path d="M 1144.558594 1399.039062 L 979.164062 1399.039062 L 979.164062 1131.191406 L 1144.558594 1131.191406 L 1144.558594 1399.039062" fill="#f6e9d5"/></g><g><path d="M 1130.859375 1386.609375 L 994 1386.609375 L 994 1147.089844 L 1130.859375 1147.089844 L 1130.859375 1386.609375" fill="#a1b09e"/></g><g><path d="M 994 1147.089844 L 994 1386.609375 L 1130.859375 1386.609375 L 1130.859375 1147.089844 Z M 1122.640625 1167.011719 L 1068.53125 1167.011719 L 1068.53125 1155.308594 L 1122.640625 1155.308594 Z M 1068.53125 1339.558594 L 1068.53125 1328.609375 L 1122.640625 1328.609375 L 1122.640625 1339.558594 Z M 1122.640625 1347.78125 L 1122.640625 1358.730469 L 1068.53125 1358.730469 L 1068.53125 1347.78125 Z M 1068.53125 1320.390625 L 1068.53125 1309.441406 L 1122.640625 1309.441406 L 1122.640625 1320.390625 Z M 1068.53125 1301.21875 L 1068.53125 1290.269531 L 1122.640625 1290.269531 L 1122.640625 1301.21875 Z M 1068.53125 1282.050781 L 1068.53125 1271.101562 L 1122.640625 1271.101562 L 1122.640625 1282.050781 Z M 1068.53125 1262.871094 L 1068.53125 1251.921875 L 1122.640625 1251.921875 L 1122.640625 1262.871094 Z M 1068.53125 1243.699219 L 1068.53125 1232.75 L 1122.640625 1232.75 L 1122.640625 1243.699219 Z M 1068.53125 1224.53125 L 1068.53125 1213.578125 L 1122.640625 1213.578125 L 1122.640625 1224.53125 Z M 1068.53125 1205.359375 L 1068.53125 1194.410156 L 1122.640625 1194.410156 L 1122.640625 1205.359375 Z M 1068.53125 1186.191406 L 1068.53125 1175.238281 L 1122.640625 1175.238281 L 1122.640625 1186.191406 Z M 1002.21875 1155.308594 L 1060.308594 1155.308594 L 1060.308594 1167.011719 L 1002.21875 1167.011719 Z M 1002.21875 1175.238281 L 1060.308594 1175.238281 L 1060.308594 1186.191406 L 1002.21875 1186.191406 Z M 1002.21875 1194.410156 L 1060.308594 1194.410156 L 1060.308594 1205.359375 L 1002.21875 1205.359375 Z M 1002.21875 1213.578125 L 1060.308594 1213.578125 L 1060.308594 1224.53125 L 1002.21875 1224.53125 Z M 1002.21875 1232.75 L 1060.308594 1232.75 L 1060.308594 1243.699219 L 1002.21875 1243.699219 Z M 1002.21875 1251.921875 L 1060.308594 1251.921875 L 1060.308594 1262.871094 L 1002.21875 1262.871094 Z M 1002.21875 1271.101562 L 1060.308594 1271.101562 L 1060.308594 1282.050781 L 1002.21875 1282.050781 Z M 1002.21875 1290.269531 L 1060.308594 1290.269531 L 1060.308594 1301.21875 L 1002.21875 1301.21875 Z M 1002.21875 1309.441406 L 1060.308594 1309.441406 L 1060.308594 1320.390625 L 1002.21875 1320.390625 Z M 1002.21875 1328.609375 L 1060.308594 1328.609375 L 1060.308594 1339.558594 L 1002.21875 1339.558594 Z M 1002.21875 1347.78125 L 1060.308594 1347.78125 L 1060.308594 1358.730469 L 1002.21875 1358.730469 Z M 1002.21875 1366.960938 L 1060.308594 1366.960938 L 1060.308594 1378.378906 L 1002.21875 1378.378906 Z M 1068.53125 1378.378906 L 1068.53125 1366.960938 L 1122.640625 1366.960938 L 1122.640625 1378.378906 L 1068.53125 1378.378906" fill="#5d321f"/></g><g><path d="M 792.03125 1805.679688 L 626.632812 1805.679688 L 626.632812 1536.238281 L 792.03125 1536.238281 L 792.03125 1805.679688" fill="#f6e9d5"/></g><g><path d="M 778.324219 1791.652344 L 641.46875 1791.652344 L 641.46875 1552.136719 L 778.324219 1552.136719 L 778.324219 1791.652344" fill="#a1b09e"/></g><g><path d="M 641.46875 1552.136719 L 641.46875 1791.652344 L 778.324219 1791.652344 L 778.324219 1552.136719 Z M 770.101562 1572.058594 L 716.003906 1572.058594 L 716.003906 1560.359375 L 770.101562 1560.359375 Z M 716.003906 1744.609375 L 716.003906 1733.65625 L 770.101562 1733.65625 L 770.101562 1744.609375 Z M 770.101562 1752.828125 L 770.101562 1763.78125 L 716.003906 1763.78125 L 716.003906 1752.828125 Z M 716.003906 1725.433594 L 716.003906 1714.484375 L 770.101562 1714.484375 L 770.101562 1725.433594 Z M 716.003906 1706.265625 L 716.003906 1695.3125 L 770.101562 1695.3125 L 770.101562 1706.265625 Z M 716.003906 1687.09375 L 716.003906 1676.144531 L 770.101562 1676.144531 L 770.101562 1687.09375 Z M 716.003906 1667.921875 L 716.003906 1656.96875 L 770.101562 1656.96875 L 770.101562 1667.921875 Z M 716.003906 1648.746094 L 716.003906 1637.796875 L 770.101562 1637.796875 L 770.101562 1648.746094 Z M 716.003906 1629.574219 L 716.003906 1618.628906 L 770.101562 1618.628906 L 770.101562 1629.574219 Z M 716.003906 1610.402344 L 716.003906 1599.453125 L 770.101562 1599.453125 L 770.101562 1610.402344 Z M 716.003906 1591.234375 L 716.003906 1580.28125 L 770.101562 1580.28125 L 770.101562 1591.234375 Z M 649.691406 1560.359375 L 707.78125 1560.359375 L 707.78125 1572.058594 L 649.691406 1572.058594 Z M 649.691406 1580.28125 L 707.78125 1580.28125 L 707.78125 1591.234375 L 649.691406 1591.234375 Z M 649.691406 1599.453125 L 707.78125 1599.453125 L 707.78125 1610.402344 L 649.691406 1610.402344 Z M 649.691406 1618.628906 L 707.78125 1618.628906 L 707.78125 1629.574219 L 649.691406 1629.574219 Z M 649.691406 1637.796875 L 707.78125 1637.796875 L 707.78125 1648.746094 L 649.691406 1648.746094 Z M 649.691406 1656.96875 L 707.78125 1656.96875 L 707.78125 1667.921875 L 649.691406 1667.921875 Z M 649.691406 1676.144531 L 707.78125 1676.144531 L 707.78125 1687.09375 L 649.691406 1687.09375 Z M 649.691406 1695.3125 L 707.78125 1695.3125 L 707.78125 1706.265625 L 649.691406 1706.265625 Z M 649.691406 1714.484375 L 707.78125 1714.484375 L 707.78125 1725.433594 L 649.691406 1725.433594 Z M 649.691406 1733.65625 L 707.78125 1733.65625 L 707.78125 1744.609375 L 649.691406 1744.609375 Z M 649.691406 1752.828125 L 707.78125 1752.828125 L 707.78125 1763.78125 L 649.691406 1763.78125 Z M 649.691406 1772.003906 L 707.78125 1772.003906 L 707.78125 1783.429688 L 649.691406 1783.429688 Z M 716.003906 1783.429688 L 716.003906 1772.003906 L 770.101562 1772.003906 L 770.101562 1783.429688 L 716.003906 1783.429688" fill="#5d321f"/></g><g><path d="M 1144.558594 1805.679688 L 979.164062 1805.679688 L 979.164062 1536.238281 L 1144.558594 1536.238281 L 1144.558594 1805.679688" fill="#f6e9d5"/></g><g><path d="M 1130.859375 1791.652344 L 994 1791.652344 L 994 1552.136719 L 1130.859375 1552.136719 L 1130.859375 1791.652344" fill="#a1b09e"/></g><g><path d="M 994 1552.136719 L 994 1791.652344 L 1130.859375 1791.652344 L 1130.859375 1552.136719 Z M 1122.640625 1572.058594 L 1068.53125 1572.058594 L 1068.53125 1560.359375 L 1122.640625 1560.359375 Z M 1068.53125 1744.609375 L 1068.53125 1733.65625 L 1122.640625 1733.65625 L 1122.640625 1744.609375 Z M 1122.640625 1752.828125 L 1122.640625 1763.78125 L 1068.53125 1763.78125 L 1068.53125 1752.828125 Z M 1068.53125 1725.433594 L 1068.53125 1714.484375 L 1122.640625 1714.484375 L 1122.640625 1725.433594 Z M 1068.53125 1706.265625 L 1068.53125 1695.3125 L 1122.640625 1695.3125 L 1122.640625 1706.265625 Z M 1068.53125 1687.09375 L 1068.53125 1676.144531 L 1122.640625 1676.144531 L 1122.640625 1687.09375 Z M 1068.53125 1667.921875 L 1068.53125 1656.96875 L 1122.640625 1656.96875 L 1122.640625 1667.921875 Z M 1068.53125 1648.746094 L 1068.53125 1637.796875 L 1122.640625 1637.796875 L 1122.640625 1648.746094 Z M 1068.53125 1629.574219 L 1068.53125 1618.628906 L 1122.640625 1618.628906 L 1122.640625 1629.574219 Z M 1068.53125 1610.402344 L 1068.53125 1599.453125 L 1122.640625 1599.453125 L 1122.640625 1610.402344 Z M 1068.53125 1591.234375 L 1068.53125 1580.28125 L 1122.640625 1580.28125 L 1122.640625 1591.234375 Z M 1002.21875 1560.359375 L 1060.308594 1560.359375 L 1060.308594 1572.058594 L 1002.21875 1572.058594 Z M 1002.21875 1580.28125 L 1060.308594 1580.28125 L 1060.308594 1591.234375 L 1002.21875 1591.234375 Z M 1002.21875 1599.453125 L 1060.308594 1599.453125 L 1060.308594 1610.402344 L 1002.21875 1610.402344 Z M 1002.21875 1618.628906 L 1060.308594 1618.628906 L 1060.308594 1629.574219 L 1002.21875 1629.574219 Z M 1002.21875 1637.796875 L 1060.308594 1637.796875 L 1060.308594 1648.746094 L 1002.21875 1648.746094 Z M 1002.21875 1656.96875 L 1060.308594 1656.96875 L 1060.308594 1667.921875 L 1002.21875 1667.921875 Z M 1002.21875 1676.144531 L 1060.308594 1676.144531 L 1060.308594 1687.09375 L 1002.21875 1687.09375 Z M 1002.21875 1695.3125 L 1060.308594 1695.3125 L 1060.308594 1706.265625 L 1002.21875 1706.265625 Z M 1002.21875 1714.484375 L 1060.308594 1714.484375 L 1060.308594 1725.433594 L 1002.21875 1725.433594 Z M 1002.21875 1733.65625 L 1060.308594 1733.65625 L 1060.308594 1744.609375 L 1002.21875 1744.609375 Z M 1002.21875 1752.828125 L 1060.308594 1752.828125 L 1060.308594 1763.78125 L 1002.21875 1763.78125 Z M 1002.21875 1772.003906 L 1060.308594 1772.003906 L 1060.308594 1783.429688 L 1002.21875 1783.429688 Z M 1068.53125 1783.429688 L 1068.53125 1772.003906 L 1122.640625 1772.003906 L 1122.640625 1783.429688 L 1068.53125 1783.429688" fill="#5d321f"/></g><g><path d="M 794.355469 1942.429688 L 628.953125 1942.429688 L 628.953125 1824.878906 L 794.355469 1824.878906 L 794.355469 1942.429688" fill="#f6e9d5"/></g><g><path d="M 780.648438 1918.214844 L 643.789062 1918.214844 L 643.789062 1840.773438 L 780.648438 1840.773438 L 780.648438 1918.214844" fill="#a1b09e"/></g><g><path d="M 710.101562 1926.4375 L 780.648438 1926.4375 L 780.648438 1840.773438 L 643.789062 1840.773438 L 643.789062 1926.4375 Z M 718.324219 1848.996094 L 772.425781 1848.996094 L 772.425781 1860.699219 L 718.324219 1860.699219 Z M 718.324219 1868.921875 L 772.425781 1868.921875 L 772.425781 1879.871094 L 718.324219 1879.871094 Z M 718.324219 1888.09375 L 772.425781 1888.09375 L 772.425781 1899.042969 L 718.324219 1899.042969 Z M 718.324219 1907.265625 L 772.425781 1907.265625 L 772.425781 1918.214844 L 718.324219 1918.214844 Z M 652.011719 1848.996094 L 710.101562 1848.996094 L 710.101562 1860.699219 L 652.011719 1860.699219 Z M 652.011719 1868.921875 L 710.101562 1868.921875 L 710.101562 1879.871094 L 652.011719 1879.871094 Z M 652.011719 1888.09375 L 710.101562 1888.09375 L 710.101562 1899.042969 L 652.011719 1899.042969 Z M 652.011719 1907.265625 L 710.101562 1907.265625 L 710.101562 1918.214844 L 652.011719 1918.214844 L 652.011719 1907.265625" fill="#5d321f"/></g><g><path d="M 1145.128906 1943.085938 L 979.730469 1943.085938 L 979.730469 1825.535156 L 1145.128906 1825.535156 L 1145.128906 1943.085938" fill="#f6e9d5"/></g><g><path d="M 1131.421875 1918.871094 L 994.5625 1918.871094 L 994.5625 1841.433594 L 1131.421875 1841.433594 L 1131.421875 1918.871094" fill="#a1b09e"/></g><g><path d="M 1060.878906 1927.09375 L 1131.421875 1927.09375 L 1131.421875 1841.433594 L 994.5625 1841.433594 L 994.5625 1927.09375 Z M 1069.101562 1849.65625 L 1123.199219 1849.65625 L 1123.199219 1861.355469 L 1069.101562 1861.355469 Z M 1069.101562 1869.578125 L 1123.199219 1869.578125 L 1123.199219 1880.53125 L 1069.101562 1880.53125 Z M 1069.101562 1888.753906 L 1123.199219 1888.753906 L 1123.199219 1899.703125 L 1069.101562 1899.703125 Z M 1069.101562 1907.925781 L 1123.199219 1907.925781 L 1123.199219 1918.871094 L 1069.101562 1918.871094 Z M 1002.789062 1849.65625 L 1060.878906 1849.65625 L 1060.878906 1861.355469 L 1002.789062 1861.355469 Z M 1002.789062 1869.578125 L 1060.878906 1869.578125 L 1060.878906 1880.53125 L 1002.789062 1880.53125 Z M 1002.789062 1888.753906 L 1060.878906 1888.753906 L 1060.878906 1899.703125 L 1002.789062 1899.703125 Z M 1002.789062 1907.925781 L 1060.878906 1907.925781 L 1060.878906 1918.871094 L 1002.789062 1918.871094 L 1002.789062 1907.925781" fill="#5d321f"/></g><g><path d="M 969.742188 1943.085938 L 804.34375 1943.085938 L 804.34375 1825.535156 L 969.742188 1825.535156 L 969.742188 1943.085938" fill="#f6e9d5"/></g><g><path d="M 956.035156 1918.871094 L 819.175781 1918.871094 L 819.175781 1841.433594 L 956.035156 1841.433594 L 956.035156 1918.871094" fill="#a1b09e"/></g><g><path d="M 885.488281 1927.09375 L 956.035156 1927.09375 L 956.035156 1841.433594 L 819.175781 1841.433594 L 819.175781 1927.09375 Z M 893.710938 1849.65625 L 947.8125 1849.65625 L 947.8125 1861.355469 L 893.710938 1861.355469 Z M 893.710938 1869.578125 L 947.8125 1869.578125 L 947.8125 1880.53125 L 893.710938 1880.53125 Z M 893.710938 1888.753906 L 947.8125 1888.753906 L 947.8125 1899.703125 L 893.710938 1899.703125 Z M 893.710938 1907.925781 L 947.8125 1907.925781 L 947.8125 1918.871094 L 893.710938 1918.871094 Z M 827.398438 1849.65625 L 885.488281 1849.65625 L 885.488281 1861.355469 L 827.398438 1861.355469 Z M 827.398438 1869.578125 L 885.488281 1869.578125 L 885.488281 1880.53125 L 827.398438 1880.53125 Z M 827.398438 1888.753906 L 885.488281 1888.753906 L 885.488281 1899.703125 L 827.398438 1899.703125 Z M 827.398438 1907.925781 L 885.488281 1907.925781 L 885.488281 1918.871094 L 827.398438 1918.871094 L 827.398438 1907.925781" fill="#5d321f"/></g><g><path d="M 887.039062 2195.785156 L 734.683594 2195.785156 L 734.683594 1973.726562 L 887.039062 1973.726562 L 887.039062 2195.785156" fill="#f6e9d5"/></g><g><path d="M 866.269531 2195.785156 L 755.699219 2195.785156 L 755.699219 2014.847656 L 866.269531 2014.847656 L 866.269531 2195.785156" fill="#a1b09e"/></g><g><path d="M 803.8125 2069.996094 L 768.3125 2069.996094 L 768.3125 2034.496094 L 803.8125 2034.496094 Z M 776.535156 2061.773438 L 795.589844 2061.773438 L 795.589844 2042.71875 L 776.535156 2042.71875 L 776.535156 2061.773438" fill="#869186"/></g><g><path d="M 854.675781 2069.996094 L 819.175781 2069.996094 L 819.175781 2034.496094 L 854.675781 2034.496094 Z M 827.398438 2061.773438 L 846.453125 2061.773438 L 846.453125 2042.71875 L 827.398438 2042.71875 L 827.398438 2061.773438" fill="#869186"/></g><g><path d="M 803.8125 2120.253906 L 768.3125 2120.253906 L 768.3125 2084.757812 L 803.8125 2084.757812 Z M 776.535156 2112.03125 L 795.589844 2112.03125 L 795.589844 2092.976562 L 776.535156 2092.976562 L 776.535156 2112.03125" fill="#869186"/></g><g><path d="M 854.675781 2120.253906 L 819.175781 2120.253906 L 819.175781 2084.757812 L 854.675781 2084.757812 Z M 827.398438 2112.03125 L 846.453125 2112.03125 L 846.453125 2092.976562 L 827.398438 2092.976562 L 827.398438 2112.03125" fill="#869186"/></g><g><path d="M 803.179688 2170.515625 L 767.679688 2170.515625 L 767.679688 2135.015625 L 803.179688 2135.015625 Z M 775.902344 2162.289062 L 794.957031 2162.289062 L 794.957031 2143.238281 L 775.902344 2143.238281 L 775.902344 2162.289062" fill="#869186"/></g><g><path d="M 854.042969 2170.515625 L 818.546875 2170.515625 L 818.546875 2135.015625 L 854.042969 2135.015625 Z M 826.765625 2162.289062 L 845.820312 2162.289062 L 845.820312 2143.238281 L 826.765625 2143.238281 L 826.765625 2162.289062" fill="#869186"/></g><g><path d="M 707.78125 2095.265625 L 612.230469 2095.265625 L 612.230469 2014.847656 L 707.78125 2014.847656 L 707.78125 2095.265625" fill="#f6e9d5"/></g><g><path d="M 691.734375 2078.816406 L 628.953125 2078.816406 L 628.953125 2031.296875 L 691.734375 2031.296875 L 691.734375 2078.816406" fill="#a1b09e"/></g><g><path d="M 688.191406 2075.503906 L 631.992188 2075.503906 L 631.992188 2034.496094 L 688.191406 2034.496094 L 688.191406 2075.503906" fill="#898784"/></g><g><path d="M 691.734375 2055.058594 L 628.953125 2055.058594 L 628.953125 2052.246094 L 691.734375 2052.246094 L 691.734375 2055.058594" fill="#a1b09e"/></g><g><path d="M 647.34375 2078.816406 L 642.890625 2078.816406 L 642.890625 2031.296875 L 647.34375 2031.296875 L 647.34375 2078.816406" fill="#a1b09e"/></g><g><path d="M 662.570312 2078.816406 L 658.117188 2078.816406 L 658.117188 2031.296875 L 662.570312 2031.296875 L 662.570312 2078.816406" fill="#a1b09e"/></g><g><path d="M 677.304688 2078.816406 L 672.851562 2078.816406 L 672.851562 2031.296875 L 677.304688 2031.296875 L 677.304688 2078.816406" fill="#a1b09e"/></g><g><path d="M 1011.621094 2095.265625 L 916.074219 2095.265625 L 916.074219 2014.847656 L 1011.621094 2014.847656 L 1011.621094 2095.265625" fill="#f6e9d5"/></g><g><path d="M 995.574219 2078.816406 L 932.796875 2078.816406 L 932.796875 2031.296875 L 995.574219 2031.296875 L 995.574219 2078.816406" fill="#a1b09e"/></g><g><path d="M 992.035156 2075.503906 L 935.835938 2075.503906 L 935.835938 2034.496094 L 992.035156 2034.496094 L 992.035156 2075.503906" fill="#898784"/></g><g><path d="M 995.574219 2055.058594 L 932.796875 2055.058594 L 932.796875 2052.246094 L 995.574219 2052.246094 L 995.574219 2055.058594" fill="#a1b09e"/></g><g><path d="M 951.1875 2078.816406 L 946.730469 2078.816406 L 946.730469 2031.296875 L 951.1875 2031.296875 L 951.1875 2078.816406" fill="#a1b09e"/></g><g><path d="M 966.414062 2078.816406 L 961.960938 2078.816406 L 961.960938 2031.296875 L 966.414062 2031.296875 L 966.414062 2078.816406" fill="#a1b09e"/></g><g><path d="M 981.148438 2078.816406 L 976.695312 2078.816406 L 976.695312 2031.296875 L 981.148438 2031.296875 L 981.148438 2078.816406" fill="#a1b09e"/></g><g><path d="M 1909.285156 336.035156 L 2266.089844 336.035156 L 2266.089844 2195.785156 L 1909.285156 2195.785156 L 1909.285156 336.035156" fill="#edd08e"/></g><g><path d="M 1909.285156 1648.140625 L 2266.089844 1648.140625 L 2266.089844 2195.785156 L 1909.285156 2195.785156 L 1909.285156 1648.140625" fill="#f6e9d5"/></g><g><path d="M 1909.277344 336.039062 L 2313.523438 336.039062 L 2291.566406 115.816406 L 1909.277344 115.816406 L 1909.277344 336.039062" fill="#575552"/></g><g><path d="M 2313.523438 336.03125 L 2265.960938 336.03125 L 2265.960938 377.546875 L 2313.523438 336.03125" fill="#4d4943"/></g><g><path d="M 2191.546875 1683.609375 L 2266.089844 1683.609375 L 2266.089844 1648.140625 L 2191.546875 1648.140625 L 2191.546875 1683.609375" fill="#d3a785"/></g><g><path d="M 2095.898438 1683.609375 L 2172.300781 1683.609375 L 2172.300781 1648.140625 L 2095.898438 1648.140625 L 2095.898438 1683.609375" fill="#d3a785"/></g><g><path d="M 2018.410156 1683.613281 L 2078.496094 1683.613281 L 2078.496094 1648.148438 L 2018.410156 1648.148438 L 2018.410156 1683.613281" fill="#d3a785"/></g><g><path d="M 1909.277344 1683.609375 L 2000.15625 1683.609375 L 2000.15625 1648.144531 L 1909.277344 1648.144531 L 1909.277344 1683.609375" fill="#d3a785"/></g><g><path d="M 2191.546875 1944.40625 L 2266.089844 1944.40625 L 2266.089844 1908.941406 L 2191.546875 1908.941406 L 2191.546875 1944.40625" fill="#d3a785"/></g><g><path d="M 2095.898438 1944.40625 L 2172.300781 1944.40625 L 2172.300781 1908.941406 L 2095.898438 1908.941406 L 2095.898438 1944.40625" fill="#d3a785"/></g><g><path d="M 2018.410156 1944.410156 L 2078.496094 1944.410156 L 2078.496094 1908.945312 L 2018.410156 1908.945312 L 2018.410156 1944.410156" fill="#d3a785"/></g><g><path d="M 1909.277344 1944.40625 L 2000.15625 1944.40625 L 2000.15625 1908.941406 L 1909.277344 1908.941406 L 1909.277344 1944.40625" fill="#d3a785"/></g><g><path d="M 1996.390625 1786.144531 L 1909.285156 1786.144531 L 1909.285156 1750.675781 L 1996.390625 1750.675781 L 1996.390625 1786.144531" fill="#d3a785"/></g><g><path d="M 2076.652344 1786.144531 L 2008.109375 1786.144531 L 2008.109375 1750.675781 L 2076.652344 1750.675781 L 2076.652344 1786.144531" fill="#d3a785"/></g><g><path d="M 2170.441406 1786.148438 L 2090.949219 1786.148438 L 2090.949219 1750.679688 L 2170.441406 1750.679688 L 2170.441406 1786.148438" fill="#d3a785"/></g><g><path d="M 2266.089844 1786.144531 L 2189.683594 1786.144531 L 2189.683594 1750.675781 L 2266.089844 1750.675781 L 2266.089844 1786.144531" fill="#d3a785"/></g><g><path d="M 2225.21875 1736.601562 L 2266.089844 1736.601562 L 2266.089844 1702.683594 L 2225.21875 1702.683594 L 2225.21875 1736.601562" fill="#d3a785"/></g><g><path d="M 2133.054688 1736.597656 L 2210.785156 1736.597656 L 2210.785156 1702.683594 L 2133.054688 1702.683594 L 2133.054688 1736.597656" fill="#d3a785"/></g><g><path d="M 2036.6875 1736.605469 L 2114.46875 1736.605469 L 2114.46875 1702.6875 L 2036.6875 1702.6875 L 2036.6875 1736.605469" fill="#d3a785"/></g><g><path d="M 1956.128906 1736.601562 L 2018.429688 1736.601562 L 2018.429688 1702.683594 L 1956.128906 1702.683594 L 1956.128906 1736.601562" fill="#d3a785"/></g><g><path d="M 1909.273438 1736.605469 L 1943.1875 1736.605469 L 1943.1875 1702.6875 L 1909.273438 1702.6875 L 1909.273438 1736.605469" fill="#d3a785"/></g><g><path d="M 2225.21875 1892.632812 L 2266.089844 1892.632812 L 2266.089844 1858.714844 L 2225.21875 1858.714844 L 2225.21875 1892.632812" fill="#d3a785"/></g><g><path d="M 2133.054688 1892.632812 L 2210.785156 1892.632812 L 2210.785156 1858.714844 L 2133.054688 1858.714844 L 2133.054688 1892.632812" fill="#d3a785"/></g><g><path d="M 2036.6875 1892.636719 L 2114.46875 1892.636719 L 2114.46875 1858.71875 L 2036.6875 1858.71875 L 2036.6875 1892.636719" fill="#d3a785"/></g><g><path d="M 1956.128906 1892.632812 L 2018.429688 1892.632812 L 2018.429688 1858.714844 L 1956.128906 1858.714844 L 1956.128906 1892.632812" fill="#d3a785"/></g><g><path d="M 1909.273438 1892.636719 L 1943.1875 1892.636719 L 1943.1875 1858.71875 L 1909.273438 1858.71875 L 1909.273438 1892.636719" fill="#d3a785"/></g><g><path d="M 1975.640625 1839.136719 L 1909.28125 1839.136719 L 1909.28125 1805.21875 L 1975.640625 1805.21875 L 1975.640625 1839.136719" fill="#d3a785"/></g><g><path d="M 2051.386719 1839.140625 L 1991.269531 1839.140625 L 1991.269531 1805.222656 L 2051.386719 1805.222656 L 2051.386719 1839.140625" fill="#d3a785"/></g><g><path d="M 2136.765625 1839.140625 L 2063.632812 1839.140625 L 2063.632812 1805.222656 L 2136.765625 1805.222656 L 2136.765625 1839.140625" fill="#d3a785"/></g><g><path d="M 2228.925781 1839.136719 L 2151.203125 1839.136719 L 2151.203125 1805.21875 L 2228.925781 1805.21875 L 2228.925781 1839.136719" fill="#d3a785"/></g><g><path d="M 2266.089844 1839.136719 L 2238.4375 1839.136719 L 2238.4375 1805.21875 L 2266.089844 1805.21875 L 2266.089844 1839.136719" fill="#d3a785"/></g><g><path d="M 1996.390625 2042.484375 L 1909.285156 2042.484375 L 1909.285156 2007.015625 L 1996.390625 2007.015625 L 1996.390625 2042.484375" fill="#d3a785"/></g><g><path d="M 2076.652344 2042.484375 L 2008.109375 2042.484375 L 2008.109375 2007.019531 L 2076.652344 2007.019531 L 2076.652344 2042.484375" fill="#d3a785"/></g><g><path d="M 2170.441406 2042.484375 L 2090.949219 2042.484375 L 2090.949219 2007.019531 L 2170.441406 2007.019531 L 2170.441406 2042.484375" fill="#d3a785"/></g><g><path d="M 2266.089844 2042.484375 L 2189.683594 2042.484375 L 2189.683594 2007.015625 L 2266.089844 2007.015625 L 2266.089844 2042.484375" fill="#d3a785"/></g><g><path d="M 2225.21875 1992.941406 L 2266.089844 1992.941406 L 2266.089844 1959.023438 L 2225.21875 1959.023438 L 2225.21875 1992.941406" fill="#d3a785"/></g><g><path d="M 2133.054688 1992.9375 L 2210.785156 1992.9375 L 2210.785156 1959.023438 L 2133.054688 1959.023438 L 2133.054688 1992.9375" fill="#d3a785"/></g><g><path d="M 2036.6875 1992.941406 L 2114.46875 1992.941406 L 2114.46875 1959.027344 L 2036.6875 1959.027344 L 2036.6875 1992.941406" fill="#d3a785"/></g><g><path d="M 1956.128906 1992.941406 L 2018.429688 1992.941406 L 2018.429688 1959.023438 L 1956.128906 1959.023438 L 1956.128906 1992.941406" fill="#d3a785"/></g><g><path d="M 1909.273438 1992.945312 L 1943.1875 1992.945312 L 1943.1875 1959.027344 L 1909.273438 1959.027344 L 1909.273438 1992.945312" fill="#d3a785"/></g><g><path d="M 2225.21875 2148.972656 L 2266.089844 2148.972656 L 2266.089844 2115.054688 L 2225.21875 2115.054688 L 2225.21875 2148.972656" fill="#d3a785"/></g><g><path d="M 2133.054688 2148.972656 L 2210.785156 2148.972656 L 2210.785156 2115.054688 L 2133.054688 2115.054688 L 2133.054688 2148.972656" fill="#d3a785"/></g><g><path d="M 2036.6875 2148.976562 L 2114.46875 2148.976562 L 2114.46875 2115.058594 L 2036.6875 2115.058594 L 2036.6875 2148.976562" fill="#d3a785"/></g><g><path d="M 1956.128906 2148.972656 L 2018.429688 2148.972656 L 2018.429688 2115.054688 L 1956.128906 2115.054688 L 1956.128906 2148.972656" fill="#d3a785"/></g><g><path d="M 1909.273438 2148.976562 L 1943.1875 2148.976562 L 1943.1875 2115.058594 L 1909.273438 2115.058594 L 1909.273438 2148.976562" fill="#d3a785"/></g><g><path d="M 1975.640625 2095.476562 L 1909.28125 2095.476562 L 1909.28125 2061.558594 L 1975.640625 2061.558594 L 1975.640625 2095.476562" fill="#d3a785"/></g><g><path d="M 2051.386719 2095.480469 L 1991.269531 2095.480469 L 1991.269531 2061.5625 L 2051.386719 2061.5625 L 2051.386719 2095.480469" fill="#d3a785"/></g><g><path d="M 2136.765625 2095.480469 L 2063.632812 2095.480469 L 2063.632812 2061.5625 L 2136.765625 2061.5625 L 2136.765625 2095.480469" fill="#d3a785"/></g><g><path d="M 2228.925781 2095.476562 L 2151.203125 2095.476562 L 2151.203125 2061.558594 L 2228.925781 2061.558594 L 2228.925781 2095.476562" fill="#d3a785"/></g><g><path d="M 2266.089844 2095.476562 L 2234.476562 2095.476562 L 2234.476562 2061.558594 L 2266.089844 2061.558594 L 2266.089844 2095.476562" fill="#d3a785"/></g><g><path d="M 1975.640625 2195.785156 L 1909.28125 2195.785156 L 1909.28125 2161.867188 L 1975.640625 2161.867188 L 1975.640625 2195.785156" fill="#d3a785"/></g><g><path d="M 2051.386719 2195.785156 L 1991.269531 2195.785156 L 1991.269531 2161.867188 L 2051.386719 2161.867188 L 2051.386719 2195.785156" fill="#d3a785"/></g><g><path d="M 2136.765625 2195.785156 L 2063.632812 2195.785156 L 2063.632812 2161.867188 L 2136.765625 2161.867188 L 2136.765625 2195.785156" fill="#d3a785"/></g><g><path d="M 2228.925781 2195.785156 L 2151.203125 2195.785156 L 2151.203125 2161.867188 L 2228.925781 2161.867188 L 2228.925781 2195.785156" fill="#d3a785"/></g><g><path d="M 2266.089844 2195.785156 L 2247.519531 2195.785156 L 2247.519531 2161.867188 L 2266.089844 2161.867188 L 2266.089844 2195.785156" fill="#d3a785"/></g><g><path d="M 1968.378906 1313.347656 C 1971.085938 1294.304688 1995.527344 1279.394531 2025.28125 1279.394531 C 2055.035156 1279.394531 2079.476562 1294.304688 2082.183594 1313.347656 L 2082.4375 1313.347656 L 2082.4375 1592.367188 L 1968.121094 1592.367188 L 1968.121094 1313.347656 L 1968.378906 1313.347656" fill="#898784"/></g><g><path d="M 1977.476562 1319.597656 C 1979.78125 1301.703125 2000.535156 1287.691406 2025.824219 1287.691406 C 2051.109375 1287.691406 2071.867188 1301.703125 2074.171875 1319.597656 L 2074.386719 1319.597656 L 2074.386719 1581.851562 L 1977.261719 1581.851562 L 1977.261719 1319.597656 L 1977.476562 1319.597656" fill="#575552"/></g><g><path d="M 1984.339844 1328.265625 C 1986.265625 1311.636719 2003.640625 1298.621094 2024.800781 1298.621094 C 2045.949219 1298.621094 2063.335938 1311.636719 2065.25 1328.265625 L 2065.4375 1328.265625 L 2065.4375 1571.917969 L 1984.152344 1571.917969 L 1984.152344 1328.265625 L 1984.339844 1328.265625" fill="#a1b09e"/></g><g><path d="M 2017.675781 1295.878906 L 2031.925781 1295.878906 L 2031.925781 1574.652344 L 2017.675781 1574.652344 L 2017.675781 1295.878906" fill="#575552"/></g><g><path d="M 1980.972656 1464.933594 L 2069.53125 1464.933594 L 2069.53125 1453.660156 L 1980.972656 1453.660156 L 1980.972656 1464.933594" fill="#575552"/></g><g><path d="M 1991.210938 1985.023438 C 1991.210938 1985.023438 1996.375 1921.964844 2087.675781 1921.964844 C 2184.851562 1921.964844 2191.144531 1985.023438 2191.144531 1985.023438 L 2191.144531 2195.582031 L 1991.210938 2195.582031 L 1991.210938 1985.023438" fill="#898784"/></g><g><path d="M 2004.734375 1981.359375 C 2004.734375 1981.359375 2008.714844 1937.875 2087.671875 1937.875 C 2171.730469 1937.875 2177.664062 1981.359375 2177.664062 1981.359375 L 2177.664062 1986.238281 L 2004.734375 1986.238281 L 2004.734375 1981.359375" fill="#575552"/></g><g><path d="M 2007.316406 1999.886719 L 2175.511719 1999.886719 L 2175.511719 2195.582031 L 2007.316406 2195.582031 L 2007.316406 1999.886719" fill="#4d4943"/></g><g><path d="M 2007.316406 2100.828125 L 2175.511719 2100.828125 L 2175.511719 2090.300781 L 2007.316406 2090.300781 L 2007.316406 2100.828125" fill="#898784"/></g><g><path d="M 2085.597656 2195.582031 L 2096.75 2195.582031 L 2096.75 1999.886719 L 2085.597656 1999.886719 L 2085.597656 2195.582031" fill="#898784"/></g><g><path d="M 2102.449219 2010.164062 L 2168.585938 2010.164062 L 2168.585938 2083.734375 L 2102.449219 2083.734375 Z M 2161.894531 2016.851562 L 2109.128906 2016.851562 L 2109.128906 2077.046875 L 2161.894531 2077.046875 L 2161.894531 2016.851562" fill="#898784"/></g><g><path d="M 2011.410156 2010.164062 L 2077.550781 2010.164062 L 2077.550781 2083.734375 L 2011.410156 2083.734375 Z M 2070.859375 2016.851562 L 2018.089844 2016.851562 L 2018.089844 2077.046875 L 2070.859375 2077.046875 L 2070.859375 2016.851562" fill="#898784"/></g><g><path d="M 2103.863281 2107.394531 L 2170.003906 2107.394531 L 2170.003906 2188.148438 L 2103.863281 2188.148438 Z M 2163.320312 2114.734375 L 2110.546875 2114.734375 L 2110.546875 2180.808594 L 2163.320312 2180.808594 L 2163.320312 2114.734375" fill="#898784"/></g><g><path d="M 2012.824219 2107.394531 L 2078.96875 2107.394531 L 2078.96875 2188.148438 L 2012.824219 2188.148438 Z M 2072.285156 2114.734375 L 2019.519531 2114.734375 L 2019.519531 2180.808594 L 2072.285156 2180.808594 L 2072.285156 2114.734375" fill="#898784"/></g><g><path d="M 1962.335938 395.253906 C 1962.335938 395.253906 1965.636719 362.921875 2012.289062 362.921875 C 2058.292969 362.921875 2062.238281 395.253906 2062.238281 395.253906 L 2062.238281 514.460938 L 1962.335938 514.460938 L 1962.335938 395.253906" fill="#575552"/></g><g><path d="M 2018.496094 405.417969 L 2053.347656 405.417969 L 2053.347656 503.863281 L 2018.496094 503.863281 L 2018.496094 405.417969" fill="#a1b09e"/></g><g><path d="M 1970.957031 405.957031 L 2005.785156 405.957031 L 2005.785156 503.71875 L 1970.957031 503.71875 L 1970.957031 405.957031" fill="#a1b09e"/></g><g><path d="M 1970.742188 395.246094 L 2051.097656 395.246094 C 2051.097656 395.246094 2051.097656 370.910156 2012.289062 370.910156 C 1970.742188 370.910156 1970.742188 395.246094 1970.742188 395.246094" fill="#a1b09e"/></g><g><path d="M 2111.945312 850.207031 C 2111.945312 850.207031 2115.242188 817.871094 2161.894531 817.871094 C 2207.894531 817.871094 2211.84375 850.207031 2211.84375 850.207031 L 2211.84375 969.402344 L 2111.945312 969.402344 L 2111.945312 850.207031" fill="#575552"/></g><g><path d="M 2168.101562 860.375 L 2202.945312 860.375 L 2202.945312 958.816406 L 2168.101562 958.816406 L 2168.101562 860.375" fill="#a1b09e"/></g><g><path d="M 2120.554688 860.90625 L 2155.398438 860.90625 L 2155.398438 958.664062 L 2120.554688 958.664062 L 2120.554688 860.90625" fill="#a1b09e"/></g><g><path d="M 2120.335938 850.207031 L 2200.695312 850.207031 C 2200.695312 850.207031 2200.695312 825.863281 2161.894531 825.863281 C 2120.335938 825.863281 2120.335938 850.207031 2120.335938 850.207031" fill="#a1b09e"/></g><g><path d="M 2266.089844 1525 L 2227.886719 1525 L 2227.886719 1507.980469 L 2266.089844 1507.980469 L 2266.089844 1525" fill="#d3a785"/></g><g><path d="M 2168.585938 1411.859375 L 2109.128906 1411.859375 L 2109.128906 1386.777344 L 2168.585938 1386.777344 L 2168.585938 1411.859375" fill="#d3a785"/></g><g><path d="M 2227.882812 1434.769531 L 2168.578125 1434.769531 L 2168.578125 1411.859375 L 2227.882812 1411.859375 L 2227.882812 1434.769531" fill="#d3a785"/></g><g><path d="M 2134.09375 1639.273438 L 2063.640625 1639.273438 L 2063.640625 1613.265625 L 2134.09375 1613.265625 L 2134.09375 1639.273438" fill="#d3a785"/></g><g><path d="M 1975.640625 1117.828125 L 1909.28125 1117.828125 L 1909.28125 1093.050781 L 1975.640625 1093.050781 L 1975.640625 1117.828125" fill="#d3a785"/></g><g><path d="M 2048.46875 1117.824219 L 1984.164062 1117.824219 L 1984.164062 1093.039062 L 2048.46875 1093.039062 L 2048.46875 1117.824219" fill="#d3a785"/></g><g><path d="M 2087.6875 1152.96875 L 2018.101562 1152.96875 L 2018.101562 1127.414062 L 2087.6875 1127.414062 L 2087.6875 1152.96875" fill="#d3a785"/></g><g><path d="M 2042.375 1184.722656 L 1962.847656 1184.722656 L 1962.847656 1155.804688 L 2042.375 1155.804688 L 2042.375 1184.722656" fill="#d3a785"/></g><g><path d="M 2048.46875 754.929688 L 1968.128906 754.929688 L 1968.128906 730.160156 L 2048.46875 730.160156 L 2048.46875 754.929688" fill="#d3a785"/></g><g><path d="M 2008.289062 790.847656 L 1933.121094 790.847656 L 1933.121094 764.578125 L 2008.289062 764.578125 L 2008.289062 790.847656" fill="#d3a785"/></g><g><path d="M 2200.695312 706.636719 L 2120.335938 706.636719 L 2120.335938 676.972656 L 2200.695312 676.972656 L 2200.695312 706.636719" fill="#d3a785"/></g><g><path d="M 2111.402344 454.632812 L 2062.246094 454.632812 L 2062.246094 432.894531 L 2111.402344 432.894531 L 2111.402344 454.632812" fill="#d3a785"/></g><g><path d="M 2154.828125 489.875 L 2096.621094 489.875 L 2096.621094 463.875 L 2154.828125 463.875 L 2154.828125 489.875" fill="#d3a785"/></g><g><path d="M 2179.601562 454.824219 L 2125.726562 454.824219 L 2125.726562 432.894531 L 2179.601562 432.894531 L 2179.601562 454.824219" fill="#d3a785"/></g><g><path d="M 2265.960938 489.871094 L 2211.855469 489.871094 L 2211.855469 463.859375 L 2265.960938 463.859375 L 2265.960938 489.871094" fill="#d3a785"/></g><g><path d="M 2152.660156 377.542969 L 2087.683594 377.542969 L 2087.683594 351.15625 L 2152.660156 351.15625 L 2152.660156 377.542969" fill="#d3a785"/></g><g><path d="M 1988.371094 618.695312 L 1933.113281 618.695312 L 1933.113281 592.6875 L 1988.371094 592.6875 L 1988.371094 618.695312" fill="#d3a785"/></g><g><path d="M 2025.828125 586.472656 L 1962.855469 586.472656 L 1962.855469 567.90625 L 2025.828125 567.90625 L 2025.828125 586.472656" fill="#d3a785"/></g><g><path d="M 2265.960938 1053.425781 L 2200.707031 1053.425781 L 2200.707031 1026.179688 L 2265.960938 1026.179688 L 2265.960938 1053.425781" fill="#d3a785"/></g><g><path d="M 2461.042969 1262.820312 L 2420.253906 1262.820312 C 2418.96875 1262.820312 2417.925781 1261.78125 2417.925781 1260.503906 L 2417.925781 1251.714844 C 2417.925781 1250.4375 2418.96875 1249.398438 2420.253906 1249.398438 L 2461.042969 1249.398438 C 2462.3125 1249.398438 2463.355469 1250.4375 2463.355469 1251.714844 L 2463.355469 1260.503906 C 2463.355469 1261.78125 2462.3125 1262.820312 2461.042969 1262.820312" fill="#4d4943"/></g><g><path d="M 2458.347656 1320.628906 L 2422.945312 1320.628906 C 2421.601562 1320.628906 2420.515625 1319.539062 2420.515625 1318.195312 L 2420.515625 1282.796875 C 2420.515625 1281.453125 2421.601562 1280.367188 2422.945312 1280.367188 L 2458.347656 1280.367188 C 2459.691406 1280.367188 2460.777344 1281.453125 2460.777344 1282.796875 L 2460.777344 1318.195312 C 2460.777344 1319.539062 2459.691406 1320.628906 2458.347656 1320.628906" fill="#4d4943"/></g><g><path d="M 2463.640625 2095.738281 L 2417.640625 2095.738281 C 2414.382812 2095.738281 2411.734375 2093.09375 2411.734375 2089.832031 L 2411.734375 2064.6875 C 2411.734375 2061.425781 2414.382812 2058.78125 2417.640625 2058.78125 L 2463.640625 2058.78125 C 2466.894531 2058.78125 2469.546875 2061.425781 2469.546875 2064.6875 L 2469.546875 2089.832031 C 2469.546875 2093.09375 2466.894531 2095.738281 2463.640625 2095.738281" fill="#898784"/></g><g><path d="M 2481.042969 2160.363281 L 2400.238281 2160.363281 C 2397.1875 2160.363281 2394.699219 2157.886719 2394.699219 2154.832031 L 2394.699219 2124.132812 C 2394.699219 2121.074219 2397.1875 2118.597656 2400.238281 2118.597656 L 2481.042969 2118.597656 C 2484.109375 2118.597656 2486.582031 2121.074219 2486.582031 2124.132812 L 2486.582031 2154.832031 C 2486.582031 2157.886719 2484.109375 2160.363281 2481.042969 2160.363281" fill="#898784"/></g><g><path d="M 2463.507812 2098.175781 C 2462.464844 2088.480469 2452.640625 2080.875 2440.640625 2080.875 C 2428.65625 2080.875 2418.816406 2088.480469 2417.773438 2098.175781 L 2417.683594 2098.175781 L 2417.683594 2118.863281 L 2440.640625 2118.863281 C 2440.640625 2118.863281 2440.640625 2118.863281 2440.65625 2118.863281 L 2463.613281 2118.863281 L 2463.613281 2098.175781 L 2463.507812 2098.175781" fill="#4d4943"/></g><g><path d="M 2465.421875 2160.363281 L 2415.867188 2160.363281 L 2406.578125 2474.191406 L 2474.714844 2474.191406 L 2465.421875 2160.363281" fill="#4d4943"/></g><g><path d="M 2496.148438 2500 L 2385.132812 2500 C 2383.003906 2500 2381.285156 2498.273438 2381.285156 2496.148438 L 2381.285156 2478.046875 C 2381.285156 2475.917969 2383.003906 2474.191406 2385.132812 2474.191406 L 2496.148438 2474.191406 C 2498.277344 2474.191406 2499.996094 2475.917969 2499.996094 2478.046875 L 2499.996094 2496.148438 C 2499.996094 2498.273438 2498.277344 2500 2496.148438 2500" fill="#4d4943"/></g><g><path d="M 2451.226562 1026.828125 L 2430.066406 1026.828125 L 2430.066406 2058.78125 L 2451.226562 2058.78125 L 2451.226562 1026.828125" fill="#4d4943"/></g><g><path d="M 2432.390625 984.351562 L 2448.878906 984.351562 C 2450.59375 984.351562 2451.992188 985.75 2451.992188 987.464844 L 2451.992188 1026.140625 C 2451.992188 1027.863281 2450.59375 1029.257812 2448.878906 1029.257812 L 2432.390625 1029.257812 C 2430.675781 1029.257812 2429.277344 1027.863281 2429.277344 1026.140625 L 2429.277344 987.464844 C 2429.277344 985.75 2430.675781 984.351562 2432.390625 984.351562" fill="#898784"/></g><g><path d="M 2446.566406 1075.964844 L 2211.453125 1075.964844 L 2211.453125 1069.253906 L 2224.617188 1069.253906 C 2226.539062 1069.253906 2228.101562 1067.695312 2228.101562 1065.769531 L 2228.101562 1052.609375 C 2228.101562 1050.683594 2226.539062 1049.125 2224.617188 1049.125 L 2211.453125 1049.125 L 2211.453125 1024.347656 L 2199.054688 1024.347656 L 2199.054688 1049.125 L 2185.90625 1049.125 C 2183.972656 1049.125 2182.410156 1050.683594 2182.410156 1052.609375 L 2182.410156 1065.769531 C 2182.410156 1067.695312 2183.972656 1069.253906 2185.90625 1069.253906 L 2199.054688 1069.253906 L 2199.054688 1106.417969 L 2194.179688 1106.417969 C 2191.746094 1106.417969 2189.78125 1108.390625 2189.78125 1110.824219 L 2189.78125 1152.875 L 2170.734375 1152.875 C 2168.421875 1152.875 2166.546875 1154.75 2166.546875 1157.0625 L 2166.546875 1165.714844 C 2166.546875 1168.03125 2168.421875 1169.90625 2170.734375 1169.90625 L 2185.519531 1169.90625 L 2185.519531 1203.972656 L 2165.433594 1203.972656 C 2161.773438 1203.972656 2158.800781 1206.945312 2158.800781 1210.609375 L 2158.800781 1231.402344 C 2158.800781 1232.148438 2158.949219 1232.847656 2159.175781 1233.515625 C 2159.175781 1233.519531 2159.175781 1233.519531 2159.160156 1233.523438 L 2131.242188 1258.539062 C 2128.421875 1261.074219 2130.207031 1265.757812 2134.003906 1265.757812 L 2276.507812 1265.757812 C 2280.304688 1265.757812 2282.105469 1261.074219 2279.269531 1258.539062 L 2251.351562 1233.523438 C 2251.351562 1233.519531 2251.351562 1233.519531 2251.335938 1233.515625 C 2251.558594 1232.847656 2251.710938 1232.148438 2251.710938 1231.402344 L 2251.710938 1210.609375 C 2251.710938 1206.945312 2248.738281 1203.972656 2245.074219 1203.972656 L 2225.007812 1203.972656 L 2225.007812 1169.90625 L 2239.777344 1169.90625 C 2242.089844 1169.90625 2243.964844 1168.03125 2243.964844 1165.714844 L 2243.964844 1157.0625 C 2243.964844 1154.75 2242.089844 1152.875 2239.777344 1152.875 L 2220.746094 1152.875 L 2220.746094 1110.824219 C 2220.746094 1108.390625 2218.765625 1106.417969 2216.332031 1106.417969 L 2211.453125 1106.417969 L 2211.453125 1088.351562 L 2313.265625 1088.351562 C 2335.101562 1092.152344 2435.082031 1113.703125 2435.082031 1189.652344 L 2446.21875 1189.652344 C 2446.21875 1150.253906 2422.488281 1118.164062 2377.609375 1096.851562 C 2370.617188 1093.53125 2363.652344 1090.726562 2356.988281 1088.351562 L 2446.566406 1088.351562 L 2446.566406 1075.964844" fill="#4d4943"/></g><g><path d="M 2460.777344 1350.5625 L 2420.515625 1350.5625 L 2420.515625 1334.046875 L 2460.777344 1334.046875 L 2460.777344 1350.5625" fill="#898784"/></g><g><path d="M 2338.050781 1673.679688 C 2336.113281 1650.746094 2334.03125 1634.710938 2331.816406 1628.503906 C 2325.816406 1675.027344 2313.515625 2198.941406 2322.710938 2200.285156 C 2322.722656 2200.285156 2355.125 2200.285156 2355.3125 2200.285156 C 2356.539062 2200.285156 2349.773438 1811.8125 2338.050781 1673.679688" fill="#ad8366"/></g><g><path d="M 2383.972656 1625.777344 C 2391.160156 1691.546875 2435.90625 1795.8125 2412.503906 1859.464844 C 2409.410156 1867.839844 2404.671875 1875.644531 2403.863281 1884.722656 C 2402.757812 1897.0625 2409.140625 1908.441406 2411.53125 1920.523438 C 2419.363281 1959.871094 2385.378906 2004.320312 2404.164062 2038.109375 C 2406.929688 2043.082031 2410.769531 2047.46875 2412.007812 2053.230469 C 2413.832031 2061.730469 2409.5 2070.210938 2405.300781 2077.449219 C 2387.457031 2108.203125 2364.605469 2140.785156 2333.117188 2143.808594 C 2308.085938 2146.214844 2284.28125 2128.269531 2268.648438 2105.078125 C 2241.285156 2064.515625 2205.570312 1978.925781 2211.652344 1926.425781 C 2213.984375 1906.203125 2222.488281 1887.359375 2223.757812 1867.003906 C 2225.148438 1844.679688 2217.867188 1821.058594 2225.3125 1800.472656 C 2229.808594 1788.058594 2239.074219 1778.824219 2244.109375 1766.695312 C 2255.78125 1738.488281 2241.660156 1704.554688 2246.1875 1673.617188 C 2249.65625 1649.980469 2263.882812 1629.320312 2264.449219 1605.34375 C 2264.957031 1584.421875 2254.839844 1564.175781 2257.351562 1543.460938 C 2259.292969 1527.539062 2268.351562 1514.277344 2273.789062 1499.527344 C 2287.507812 1462.3125 2277.644531 1417.542969 2291.109375 1380.203125 C 2296.9375 1364.0625 2309.582031 1348.832031 2324.359375 1350.726562 C 2340.636719 1352.816406 2349.992188 1373.894531 2352.84375 1392.914062 C 2355.699219 1411.9375 2355.339844 1432.652344 2364.515625 1448.65625 C 2370.015625 1458.230469 2378.636719 1465.46875 2381.941406 1476.351562 C 2384.421875 1484.507812 2383.511719 1493.472656 2382.75 1502.085938 C 2379.085938 1543.1875 2379.503906 1584.789062 2383.972656 1625.777344" fill="#424942"/></g></g></svg>