<?xml version="1.0" encoding="UTF-8"?><svg xmlns="http://www.w3.org/2000/svg" xmlns:xlink="http://www.w3.org/1999/xlink" height="235.7" preserveAspectRatio="xMidYMid meet" version="1.0" viewBox="0.0 -16.9 1818.0 235.7" width="1818.0" zoomAndPan="magnify"><g id="change1_1"><path d="M1816.3,28.4c-95.9,4.2-170.9,6.6-263.5-1.4c-21-1.8-42.5-4.1-65.6-7c-295-36.9-503.5-15.7-675.7,7 c-10.6,1.4-21,2.8-31.2,4.2c-40.8,5.5-79.3,10.6-114.4,14c-86.9,8.4-211.3-0.2-331.6-8.4c-54.1-3.7-110-7.5-161.9-9.8 C107.6,24.2,58.6,24.2,18,27c-5.8,0.4-11.6,0.9-17,1.4l-1,0.1v190.2h1818V28.3L1816.3,28.4z" fill="#b87835"/></g><g id="change2_1"><path d="M1477.7,107.3c-136.1-13.5-194.4-57.4-320.8-50.6C1030.6,63.4,311.1,114,0,93.8v38v48v39h1818v-39v-48v-38 C1672.2,93.8,1613.9,120.8,1477.7,107.3z" fill="#884f21"/></g></svg>