<?xml version="1.0" encoding="UTF-8"?><svg xmlns="http://www.w3.org/2000/svg" xmlns:xlink="http://www.w3.org/1999/xlink" height="321.6" preserveAspectRatio="xMidYMid meet" version="1.0" viewBox="-2.0 -5.4 502.0 321.6" width="502.0" zoomAndPan="magnify"><g id="change1_1"><path d="M497.22,216.68c-0.66,26.99-21.76,51.01-47.46,59.3c-21.68,7.01-45.58,4.02-66.53-5.26 c-3.29,7.46-9.68,13.61-17.53,15.91c-10.2,2.99-21.86-0.8-28.89-8.69c-9.3,9.91-21.2,17.53-33.82,22.71 c-19.12,7.86-39.92,10.64-60.54,12.16c-19.31,1.4-39.27,1.66-57.37-5.19c-14.23-5.39-27.17-16.06-33.22-29.7 c-7.68,8.99-20.78,13.45-32.22,10.03c-11.04-3.3-19.35-13.61-21.27-24.89c-5.82,4.47-12.03,8.41-18.69,11.51 c-14.84,6.93-32.28,9.4-47.75,4.04c-15.47-5.36-28.3-19.46-29.56-35.79c-1.05-13.75,5.78-26.93,14.26-37.79 c15.55-19.88,37.44-34.69,61.61-41.9c-6.19-2.58-11.63-7.26-14.99-13.1c-6.15-10.69-5.91-24.29-1.2-35.68 c4.71-11.4,13.45-20.75,23.37-28.09c25.07-18.54,58.75-24.75,88.86-16.8c-1.04-9.19,0.82-18.79,4.93-27.13 c6.21-12.59,17.12-22.44,29.41-29.21c29.35-16.16,67.63-14.59,95.56,3.92c23.73,15.73,39.11,43.11,41.09,71.44 c8.35-2.11,17.52-1.11,25.05,3.1c10.61,5.95,17.43,18.01,17.25,30.15c10.75-10.04,28.89-11.26,40.74-2.44 c9.66,7.19,14.13,20.26,11.93,31.99c12.97,2.78,25.28,8.57,35.19,17.35C489,180.68,497.67,198.54,497.22,216.68z" fill="#FFF"/></g><g id="change2_1"><path d="M483.43,173.39c-10.46-12.09-25.08-19.91-40.51-23.62c1.79-13.77-4.67-28.39-17.34-34.78c-11.19-5.65-25.42-4.57-35.8,2.38 c-1.05-9.05-5.4-17.59-12.4-23.58c-8.22-7.05-19.31-9.54-29.85-7.78c-3.12-32.7-23.43-63.23-53.46-77.13 c-30.83-14.28-69.52-11.38-96.9,9.18c-15.45,11.6-26.28,29.07-25.56,48.64c-23.64-5.27-48.96-2.43-70.83,8 c-22.01,10.51-44.7,30.63-44.68,56.95c0.01,12.8,5.87,24.67,16.7,31.17c-13.44,4.65-26.07,11.45-37.26,20.27 c-12.5,9.84-24.16,22.35-30.91,36.9c-6.64,14.3-6.54,30.37,2.96,43.36c9.02,12.33,23.25,19.17,38.34,20.09 c18.42,1.12,35.99-6.06,50.79-16.56c3.13,10.92,11.61,20.24,22.75,23.23c11.11,2.98,23.18-0.68,31.58-8.3 c5.3,9.9,13.85,17.84,23.59,23.34c11.95,6.75,25.76,9.47,39.34,10.24c14.75,0.84,29.71-0.36,44.37-2.06 c14.4-1.67,28.72-4.48,42.31-9.6c13.39-5.04,25.83-12.55,36.03-22.59c6.87,6.38,16.49,9.51,25.82,8.21 c9.42-1.31,17.35-7.61,21.87-15.79c19.9,8.18,42.38,11.13,63.29,5.14c17.82-5.1,33.47-16.81,43.12-32.67 c5.38-8.85,8.59-18.97,8.91-29.34C499.97,200.73,493.83,185.4,483.43,173.39z M472.21,261.11c-14.71,12.44-33.6,17.68-52.69,16.56 c-12.03-0.7-23.84-3.87-34.85-8.7c-1.3-0.57-3.12-0.18-3.76,1.21c-3.56,7.82-10.51,14.1-19.23,15.26 c-8.59,1.14-17.21-2.66-22.96-8.94c-1.04-1.14-3.04-0.51-3.92,0.42c-18.78,19.8-45.48,28.2-71.84,31.81 c-13.6,1.86-27.47,2.98-41.2,2.85c-13.64-0.13-27.71-1.88-40.15-7.81c-11.82-5.63-22.03-14.84-27.49-26.87 c-0.74-1.64-3.35-1.04-4.27,0.01c-7.14,8.15-18.77,12.26-29.33,9.09c-10.44-3.13-17.8-13-19.7-23.46c-0.33-1.8-2.89-1.78-4.04-0.91 c-12.85,9.79-27.96,17.18-44.35,17.81c-14.47,0.56-28.6-4.47-38.24-15.51c-9.82-11.24-11.69-26.03-6.25-39.77 c5.51-13.89,16.11-25.9,27.4-35.46C47.98,178,62.79,169.89,78.66,165.1c1.52-0.46,3.21-2.76,1.02-3.71 c-11.33-4.9-17.94-15.67-18.59-27.84c-0.65-12.1,4.34-23.63,11.95-32.82c14.98-18.09,38.29-28.77,61.27-31.78 c13.05-1.71,26.38-0.84,39.11,2.47c1.59,0.41,3.5-0.73,3.32-2.47c-3.71-36.07,32.6-60.09,64.31-64.19 c32.12-4.16,64.73,9.17,83.86,35.44c10.38,14.26,16.62,31.23,17.93,48.81c0.09,1.25,1.91,1.66,2.86,1.44 c10.01-2.4,20.7-0.26,28.45,6.69c6.9,6.19,10.99,15.31,10.96,24.59c-0.01,1.98,2.69,2.69,4.06,1.45 c9.13-8.32,23.22-10.24,34.17-4.37c11.46,6.15,16.63,20.03,14.44,32.46c-0.17,0.97,0.73,1.78,1.59,1.97 c15.15,3.32,29.37,10.73,39.74,22.42c9.91,11.18,15.91,25.99,15.65,41C494.21,234.01,485.33,250.01,472.21,261.11z" fill="inherit"/></g></svg>